<svg id="svg" version="1.1" xmlns="http://www.w3.org/2000/svg" xmlns:xlink="http://www.w3.org/1999/xlink" width="400" height="588.0551301684533" viewBox="0, 0, 400,588.0551301684533"><g id="svgg"><path id="path0" d="M0.000 294.000 L 0.000 588.000 200.000 588.000 L 400.000 588.000 400.000 294.000 L 400.000 0.000 200.000 0.000 L 0.000 0.000 0.000 294.000 M170.200 2.570 C 179.440 2.644,205.090 2.824,227.200 2.970 C 249.310 3.115,273.340 3.302,280.600 3.385 C 287.860 3.469,304.320 3.652,317.177 3.793 C 330.035 3.933,340.688 4.131,340.851 4.231 C 341.014 4.332,352.364 4.411,366.073 4.406 C 391.837 4.398,393.070 4.471,394.398 6.077 C 396.134 8.177,395.795 9.739,392.461 15.000 C 389.323 19.952,388.628 20.928,387.071 22.574 C 385.802 23.916,385.438 24.699,384.922 27.195 C 384.346 29.987,381.541 37.003,380.155 39.123 C 379.627 39.931,379.555 44.586,379.587 76.160 C 379.607 96.022,379.507 112.576,379.365 112.947 C 378.469 115.282,372.951 116.300,369.741 114.722 C 368.727 114.223,368.403 114.246,366.831 114.930 C 365.468 115.522,364.481 115.652,362.531 115.495 L 360.000 115.292 359.984 236.746 C 359.975 303.546,359.974 408.302,359.982 469.537 C 359.997 586.277,360.041 582.496,358.669 583.053 C 356.593 583.896,40.387 583.470,39.768 582.624 C 39.279 581.955,39.200 549.349,39.200 348.124 L 39.200 114.400 35.500 114.354 C 33.465 114.329,29.640 114.284,27.000 114.254 C 21.632 114.194,20.287 113.667,19.835 111.450 C 19.239 108.530,19.586 42.110,20.200 41.600 C 21.051 40.894,20.973 40.632,19.398 38.922 C 17.072 36.396,13.600 28.419,13.600 25.601 C 13.600 24.712,13.339 23.881,12.960 23.567 C 12.011 22.779,9.163 18.951,7.373 16.057 C 6.508 14.658,5.486 13.038,5.102 12.457 C 2.645 8.736,2.119 5.393,3.786 4.082 C 5.142 3.016,16.436 2.719,49.600 2.877 C 83.710 3.040,95.905 2.958,100.200 2.538 C 103.508 2.214,127.654 2.225,170.200 2.570 M93.900 7.815 C 93.735 7.990,76.275 8.104,55.100 8.068 C 16.286 8.003,9.600 8.200,9.600 9.409 C 9.600 9.986,13.671 15.508,15.711 17.700 L 17.108 19.200 24.054 19.257 C 27.874 19.289,32.890 19.364,35.200 19.424 C 37.510 19.484,47.262 19.627,56.871 19.741 C 67.471 19.867,75.258 20.128,76.671 20.406 C 78.339 20.734,80.022 20.749,82.600 20.461 C 85.569 20.128,86.358 20.160,87.100 20.638 C 89.605 22.254,87.279 23.232,81.200 23.119 C 76.388 23.029,55.686 23.900,55.179 24.213 C 55.018 24.312,47.802 24.573,39.143 24.791 C 18.319 25.317,18.293 25.324,20.440 29.934 C 21.123 31.400,21.836 32.997,22.024 33.483 C 23.241 36.617,39.863 37.270,106.000 36.781 C 114.030 36.722,122.670 36.704,125.200 36.741 C 127.730 36.778,156.440 36.761,189.000 36.704 C 221.560 36.647,253.240 36.637,259.400 36.681 C 265.560 36.726,271.950 36.754,273.600 36.743 C 275.250 36.732,277.770 36.766,279.200 36.818 C 280.630 36.871,297.730 36.787,317.200 36.631 C 345.026 36.408,353.670 36.458,357.600 36.866 C 364.197 37.551,372.899 37.391,374.807 36.549 C 376.417 35.839,380.264 28.662,379.807 27.222 C 379.481 26.195,378.029 26.063,366.600 26.021 C 361.100 26.001,352.640 25.727,347.800 25.413 C 342.960 25.099,335.220 24.725,330.600 24.582 C 325.980 24.439,322.020 24.183,321.800 24.013 C 321.375 23.686,318.487 23.780,315.983 24.203 C 314.462 24.460,312.000 23.604,312.000 22.818 C 312.000 21.699,313.384 21.111,315.375 21.383 C 317.892 21.727,316.826 21.737,326.000 21.287 C 330.290 21.076,338.930 20.964,345.200 21.038 C 351.470 21.112,362.075 21.232,368.766 21.305 L 380.932 21.438 382.086 20.466 C 383.396 19.364,388.800 11.365,388.800 10.528 C 388.800 9.205,377.698 8.874,322.600 8.553 C 307.640 8.466,290.000 8.334,283.400 8.259 C 252.233 7.904,94.165 7.534,93.900 7.815 M102.646 21.395 C 103.634 22.746,102.661 23.200,98.775 23.200 C 95.032 23.200,94.568 22.978,94.970 21.378 C 95.297 20.074,101.690 20.088,102.646 21.395 M292.984 21.265 C 293.946 21.704,293.967 21.774,293.341 22.465 C 292.515 23.378,291.270 23.405,290.031 22.537 C 288.294 21.320,290.766 20.255,292.984 21.265 M266.860 21.800 C 266.860 22.009,266.666 22.245,266.430 22.323 C 266.194 22.402,266.000 22.167,266.000 21.800 C 266.000 21.433,266.194 21.198,266.430 21.277 C 266.666 21.356,266.860 21.591,266.860 21.800 M304.400 22.800 C 304.400 23.387,304.133 23.600,303.400 23.600 C 302.250 23.600,302.014 22.559,303.100 22.276 C 304.327 21.955,304.400 21.985,304.400 22.800 M34.200 41.893 C 32.815 42.239,32.812 42.311,32.806 76.854 L 32.800 110.708 34.770 111.352 C 36.609 111.954,36.823 111.950,37.968 111.298 L 39.195 110.600 39.197 76.723 L 39.200 42.845 38.311 42.223 C 37.446 41.617,35.825 41.487,34.200 41.893 M23.237 42.731 C 22.714 43.708,22.801 110.135,23.326 110.660 C 23.756 111.089,28.636 111.095,29.066 110.667 C 29.490 110.243,29.509 42.977,29.085 42.552 C 28.279 41.745,23.689 41.886,23.237 42.731 M46.142 42.322 C 43.054 42.763,43.162 50.143,46.277 51.562 C 47.593 52.162,350.364 52.196,350.964 51.596 C 351.182 51.378,351.663 51.200,352.034 51.200 C 354.040 51.200,354.881 44.964,353.100 43.297 L 352.200 42.454 199.600 42.327 C 115.670 42.257,46.614 42.255,46.142 42.322 M373.000 42.325 C 369.743 42.598,370.000 39.626,370.000 76.973 C 370.000 114.678,369.758 112.000,373.161 112.000 C 376.675 112.000,376.400 114.956,376.400 77.242 C 376.400 39.624,376.633 42.021,373.000 42.325 M360.662 43.131 C 359.612 44.292,359.649 110.645,360.700 111.443 C 361.930 112.377,365.482 112.154,366.164 111.100 C 366.977 109.844,366.902 44.729,366.086 43.300 C 365.400 42.098,361.701 41.984,360.662 43.131 M354.406 56.023 C 352.684 56.983,46.290 57.279,44.190 56.323 C 43.338 55.934,43.077 55.952,42.789 56.418 C 42.402 57.043,42.267 578.389,42.653 579.395 C 42.841 579.884,43.722 580.000,47.243 580.000 L 51.600 580.000 51.611 568.900 C 51.618 562.795,51.621 447.910,51.618 313.600 C 51.615 160.676,51.755 69.176,51.992 68.800 C 52.485 68.019,345.318 67.668,346.257 68.447 C 346.713 68.826,346.800 109.719,346.800 324.449 L 346.800 580.000 351.600 580.000 L 356.400 580.000 356.400 317.600 C 356.400 173.280,356.265 55.210,356.100 55.223 C 355.935 55.236,355.173 55.596,354.406 56.023 M55.700 71.465 C 55.302 71.626,55.200 91.994,55.200 171.433 L 55.200 271.200 126.800 271.200 L 198.400 271.200 198.400 171.427 C 198.400 76.744,198.364 71.644,197.700 71.464 C 196.755 71.208,56.334 71.209,55.700 71.465 M202.174 71.642 C 202.003 71.918,201.935 139.207,201.990 251.500 L 202.000 271.200 272.600 271.200 L 343.200 271.200 343.216 268.700 C 343.350 247.260,343.121 71.788,342.959 71.625 C 342.592 71.259,202.401 71.275,202.174 71.642 M194.907 75.123 C 195.938 75.979,195.725 267.027,194.692 267.782 C 193.347 268.766,62.089 268.569,60.464 267.581 L 59.200 266.812 59.200 171.255 C 59.200 92.786,59.294 75.620,59.726 75.261 C 60.813 74.359,193.822 74.223,194.907 75.123 M339.531 74.957 C 340.381 75.483,340.135 266.717,339.283 267.700 C 338.284 268.852,205.831 268.779,205.214 267.626 C 204.932 267.099,204.800 236.313,204.800 171.013 L 204.800 75.174 205.700 74.821 C 206.831 74.377,338.810 74.512,339.531 74.957 M236.630 77.103 C 236.573 77.160,230.101 77.225,222.247 77.248 C 210.724 77.282,207.861 77.396,207.418 77.839 C 206.746 78.511,206.517 264.149,207.188 265.200 C 207.629 265.892,336.232 265.928,336.923 265.237 C 337.365 264.795,337.357 77.995,336.915 77.561 C 336.640 77.291,236.898 76.835,236.630 77.103 M62.513 77.664 C 61.990 78.294,61.665 264.335,62.185 265.177 C 62.498 265.682,191.504 265.776,192.299 265.271 C 192.926 264.872,193.064 78.504,192.437 77.877 C 191.736 77.176,63.093 76.965,62.513 77.664 M55.467 275.067 C 55.320 275.213,55.200 343.682,55.200 427.220 L 55.200 579.107 56.100 579.442 C 56.595 579.627,88.815 579.832,127.700 579.897 L 198.400 580.017 198.400 427.409 L 198.400 274.800 127.067 274.800 C 87.833 274.800,55.613 274.920,55.467 275.067 M202.218 275.171 C 202.020 275.492,201.953 350.326,201.990 532.900 L 202.000 580.000 272.600 580.000 L 343.200 580.000 343.227 515.700 C 343.287 369.605,343.190 275.507,342.978 275.165 C 342.673 274.670,202.524 274.676,202.218 275.171 M339.200 277.992 C 340.179 278.610,340.252 576.322,339.274 576.718 C 338.337 577.097,207.256 577.072,205.900 576.692 L 204.800 576.385 204.800 427.259 C 204.800 345.240,204.920 278.013,205.067 277.867 C 205.498 277.436,338.517 277.559,339.200 277.992 M194.688 278.948 C 195.861 280.439,196.026 575.656,194.855 576.476 C 193.555 577.387,61.724 577.235,60.329 576.321 L 59.293 575.642 59.426 515.121 C 59.499 481.835,59.549 454.060,59.538 453.400 C 59.223 434.375,59.335 278.919,59.664 278.523 C 60.018 278.096,72.432 278.000,127.020 278.000 L 193.942 278.000 194.688 278.948 M208.800 279.992 L 207.000 280.200 206.906 426.800 C 206.854 507.430,206.963 573.638,207.148 573.930 C 207.545 574.556,336.310 574.650,336.935 574.025 C 337.629 573.331,337.633 280.890,336.940 280.197 C 336.341 279.598,213.906 279.403,208.800 279.992 M62.416 280.981 C 61.947 281.545,61.734 573.246,62.202 574.003 C 62.519 574.516,192.265 574.542,192.582 574.029 C 193.038 573.291,192.886 281.526,192.429 281.069 C 191.731 280.371,62.994 280.284,62.416 280.981 " stroke="none" fill="#ebebea" fill-rule="evenodd"></path><path id="path1" d="M16.310 3.749 C 6.079 4.165,5.158 4.262,4.435 5.000 C 3.337 6.120,3.916 8.915,5.893 12.037 C 6.722 13.346,7.584 14.728,7.808 15.109 C 8.245 15.849,9.798 18.123,11.421 20.400 C 11.970 21.170,12.873 22.174,13.429 22.630 C 14.169 23.239,14.476 23.933,14.582 25.234 C 14.896 29.085,17.950 36.220,20.231 38.430 C 21.723 39.876,21.933 40.946,20.991 42.291 C 19.979 43.736,20.294 111.178,21.318 112.310 C 22.332 113.430,26.128 114.110,28.200 113.543 C 30.225 112.989,31.282 113.008,33.908 113.648 C 35.465 114.027,36.427 114.051,37.588 113.741 C 38.685 113.449,39.288 113.448,39.581 113.741 C 39.872 114.032,40.000 185.480,40.000 348.030 L 40.000 581.900 41.260 582.152 C 43.659 582.632,357.682 582.430,358.263 581.948 C 358.706 581.580,358.797 542.233,358.798 348.386 C 358.799 220.170,358.906 114.988,359.037 114.649 C 359.234 114.135,359.797 114.071,362.363 114.269 C 364.863 114.462,365.743 114.370,366.973 113.786 C 368.220 113.194,368.634 113.154,369.283 113.559 C 371.988 115.248,377.459 114.423,378.537 112.164 C 379.488 110.169,379.536 43.878,378.587 42.624 C 377.766 41.537,377.856 40.288,378.836 39.161 C 380.672 37.051,383.779 29.453,384.217 26.000 C 384.436 24.272,384.765 23.537,385.748 22.574 C 389.890 18.518,394.790 10.008,394.241 7.822 C 393.628 5.377,393.881 5.404,371.016 5.359 C 359.567 5.336,345.520 5.198,339.800 5.052 C 334.080 4.906,317.880 4.704,303.800 4.603 C 289.720 4.502,272.170 4.254,264.800 4.053 C 252.011 3.703,167.507 3.345,122.600 3.449 C 70.879 3.570,30.089 3.565,28.800 3.437 C 28.030 3.360,22.409 3.501,16.310 3.749 M229.200 7.006 C 246.030 7.124,273.930 7.351,291.200 7.510 C 308.470 7.670,325.840 7.755,329.800 7.701 C 344.649 7.497,351.967 7.568,357.600 7.972 C 360.790 8.201,368.800 8.412,375.400 8.441 C 388.838 8.501,389.741 8.592,389.928 9.905 C 390.068 10.887,385.984 17.327,383.326 20.316 L 381.800 22.032 365.600 22.217 C 349.130 22.406,346.800 22.531,346.800 23.228 C 346.800 23.813,348.840 24.477,349.854 24.222 C 350.342 24.100,352.509 24.189,354.670 24.421 C 356.832 24.653,362.907 24.920,368.171 25.014 C 382.296 25.266,382.524 25.449,378.494 33.260 C 375.868 38.350,373.265 38.877,356.400 37.732 C 351.691 37.413,341.859 37.388,322.086 37.645 C 306.580 37.848,293.407 37.855,292.181 37.663 C 290.976 37.474,288.279 37.464,286.188 37.640 C 284.096 37.817,272.713 37.891,260.892 37.805 C 228.712 37.571,191.952 37.563,121.200 37.773 C 80.444 37.894,55.305 37.816,51.600 37.559 C 48.410 37.337,41.172 37.093,35.515 37.016 C 23.856 36.858,22.594 36.558,21.156 33.600 C 20.781 32.830,20.109 31.451,19.662 30.535 C 17.293 25.682,17.980 24.895,25.059 24.363 C 27.887 24.151,31.730 23.816,33.600 23.620 C 35.470 23.424,38.643 23.249,40.651 23.232 C 43.459 23.207,44.423 23.054,44.825 22.570 C 45.943 21.223,43.745 20.960,27.902 20.544 C 15.631 20.222,16.549 20.569,12.012 14.543 C 8.696 10.138,7.910 8.550,8.781 8.012 C 9.803 7.380,18.863 7.203,52.400 7.160 C 71.430 7.136,95.460 6.984,105.800 6.823 C 124.557 6.531,171.261 6.600,229.200 7.006 M339.895 22.678 C 339.507 22.778,339.293 23.027,339.419 23.230 C 339.726 23.728,342.689 23.703,343.000 23.200 C 343.136 22.980,342.891 22.800,342.456 22.800 C 342.021 22.800,341.426 22.731,341.133 22.648 C 340.840 22.564,340.283 22.577,339.895 22.678 M39.100 41.809 L 40.000 42.845 39.994 76.722 C 39.991 95.355,39.856 110.780,39.694 111.000 C 38.334 112.851,34.957 113.101,32.700 111.517 L 31.600 110.746 31.600 77.153 C 31.600 40.017,31.489 41.620,34.105 40.828 C 36.074 40.232,38.071 40.624,39.100 41.809 M29.902 76.468 L 30.004 111.101 28.798 111.601 C 26.979 112.354,23.623 111.915,22.725 110.807 C 21.793 109.656,21.576 43.531,22.500 42.272 C 23.204 41.313,26.238 40.843,28.200 41.390 L 29.800 41.835 29.902 76.468 M203.135 41.442 L 352.871 41.635 353.835 42.599 C 355.394 44.157,355.270 49.461,353.633 51.294 L 352.466 52.600 201.533 52.800 C 118.520 52.910,49.469 52.888,48.087 52.750 C 45.033 52.447,44.232 51.802,43.414 48.989 C 41.749 43.260,44.239 40.588,50.800 41.062 C 52.230 41.165,120.781 41.336,203.135 41.442 M366.691 42.682 C 367.892 44.515,367.990 110.631,366.793 111.915 C 365.490 113.314,361.139 113.207,359.781 111.742 L 358.800 110.683 358.800 77.968 C 358.800 39.514,358.533 41.600,363.453 41.600 C 365.760 41.600,366.044 41.695,366.691 42.682 M376.804 42.900 C 377.578 44.168,377.597 45.009,377.599 77.518 L 377.600 110.836 376.618 111.818 C 375.135 113.301,371.219 113.258,370.029 111.746 C 368.722 110.085,368.722 44.315,370.029 42.654 C 371.393 40.919,375.692 41.075,376.804 42.900 M357.000 317.433 L 357.000 580.600 352.400 580.716 C 349.870 580.780,347.395 580.732,346.900 580.608 L 346.000 580.385 346.000 324.592 L 346.000 68.800 199.624 68.800 C 110.817 68.800,53.158 68.945,53.019 69.168 C 52.894 69.371,52.794 184.462,52.798 324.925 C 52.803 557.770,52.748 580.334,52.169 580.556 C 51.236 580.915,42.684 580.841,42.100 580.470 C 41.700 580.216,41.620 527.414,41.700 317.776 L 41.800 55.400 43.400 55.471 C 44.280 55.510,46.279 55.735,47.843 55.971 C 49.836 56.272,95.745 56.370,201.443 56.300 L 352.200 56.200 354.200 55.158 C 355.300 54.585,356.380 54.150,356.600 54.191 C 356.866 54.241,357.000 142.306,357.000 317.433 M198.752 70.942 C 199.083 71.341,199.175 97.937,199.101 171.642 L 199.000 271.800 126.800 271.800 L 54.600 271.800 54.491 172.000 C 54.431 117.110,54.479 71.795,54.598 71.300 L 54.815 70.400 126.559 70.400 C 186.426 70.400,198.376 70.490,198.752 70.942 M343.725 70.900 C 344.582 71.533,344.818 270.414,343.963 271.445 C 343.327 272.211,202.045 272.285,201.280 271.520 C 200.581 270.821,200.581 71.579,201.280 70.880 C 201.996 70.164,342.754 70.184,343.725 70.900 M205.892 76.242 C 205.731 76.402,205.600 76.809,205.600 77.147 C 205.600 77.597,205.718 77.642,206.045 77.315 C 206.290 77.070,206.421 76.663,206.337 76.410 C 206.252 76.157,206.052 76.081,205.892 76.242 M205.761 89.600 C 205.761 93.010,205.822 94.405,205.897 92.700 C 205.972 90.995,205.972 88.205,205.897 86.500 C 205.822 84.795,205.761 86.190,205.761 89.600 M205.701 99.400 C 205.705 100.280,205.787 100.593,205.883 100.095 C 205.979 99.598,205.975 98.878,205.875 98.495 C 205.775 98.113,205.696 98.520,205.701 99.400 M198.720 274.080 C 199.280 274.640,199.426 579.425,198.866 580.306 C 198.370 581.089,56.007 580.836,55.061 580.051 C 54.200 579.336,54.020 274.940,54.880 274.080 C 55.578 273.382,198.022 273.382,198.720 274.080 M343.771 274.229 C 344.485 274.942,344.420 255.996,344.405 458.361 C 344.399 547.218,344.277 579.867,343.949 580.261 C 343.326 581.012,202.031 581.071,201.280 580.320 C 200.386 579.426,200.605 274.553,201.500 274.032 C 202.810 273.269,343.006 273.463,343.771 274.229 M208.200 278.800 C 208.060 279.027,208.396 279.200,208.976 279.200 C 209.539 279.200,210.000 279.020,210.000 278.800 C 210.000 278.580,209.651 278.400,209.224 278.400 C 208.797 278.400,208.336 278.580,208.200 278.800 M238.000 278.800 C 238.796 279.314,246.282 279.314,246.600 278.800 C 246.760 278.542,245.172 278.402,242.124 278.406 C 238.926 278.410,237.594 278.538,238.000 278.800 M205.748 322.800 C 205.748 325.110,205.814 326.055,205.895 324.900 C 205.976 323.745,205.976 321.855,205.895 320.700 C 205.814 319.545,205.748 320.490,205.748 322.800 M205.600 572.710 C 205.600 574.053,205.763 575.253,205.962 575.377 C 206.296 575.583,206.088 570.824,205.746 570.433 C 205.666 570.342,205.600 571.366,205.600 572.710 " stroke="none" fill="#2f3a27" fill-rule="evenodd"></path><path id="path2" d="M114.933 2.756 C 104.116 2.890,95.177 3.090,95.067 3.200 C 94.957 3.310,115.687 3.432,141.134 3.472 C 166.580 3.512,187.220 3.479,187.000 3.399 C 186.780 3.319,176.520 3.152,164.200 3.026 C 151.880 2.901,140.180 2.734,138.200 2.655 C 136.220 2.576,125.750 2.621,114.933 2.756 M23.000 3.216 C 21.460 3.335,32.620 3.443,47.800 3.457 C 62.980 3.470,74.860 3.424,74.200 3.354 C 72.004 3.121,25.847 2.996,23.000 3.216 M82.100 3.491 C 82.925 3.578,84.275 3.578,85.100 3.491 C 85.925 3.405,85.250 3.334,83.600 3.334 C 81.950 3.334,81.275 3.405,82.100 3.491 M196.100 3.499 C 199.565 3.566,205.235 3.566,208.700 3.499 C 212.165 3.433,209.330 3.378,202.400 3.378 C 195.470 3.378,192.635 3.433,196.100 3.499 M236.900 3.497 C 238.605 3.572,241.395 3.572,243.100 3.497 C 244.805 3.422,243.410 3.361,240.000 3.361 C 236.590 3.361,235.195 3.422,236.900 3.497 M4.209 4.464 C 2.370 5.911,2.898 8.174,6.388 13.800 C 9.238 18.393,11.211 21.117,12.700 22.511 C 13.644 23.395,14.000 24.080,14.000 25.012 C 14.000 26.624,15.425 31.023,17.301 35.204 C 17.647 35.977,18.666 37.444,19.565 38.466 C 21.326 40.466,21.544 41.217,20.591 42.007 C 20.054 42.453,19.996 46.555,20.091 77.245 C 20.215 116.896,19.860 113.397,23.806 113.786 L 25.800 113.982 24.000 113.559 C 20.274 112.682,20.615 116.192,20.491 77.369 C 20.396 47.273,20.456 43.056,20.991 42.291 C 21.933 40.946,21.723 39.876,20.231 38.430 C 17.950 36.220,14.896 29.085,14.582 25.234 C 14.476 23.933,14.169 23.239,13.429 22.630 C 12.873 22.174,11.970 21.170,11.421 20.400 C 9.798 18.123,8.245 15.849,7.808 15.109 C 7.584 14.728,6.722 13.346,5.893 12.037 C 1.958 5.822,2.912 4.290,10.910 3.978 L 16.600 3.757 10.954 3.678 C 5.709 3.606,5.230 3.661,4.209 4.464 M88.707 3.890 C 89.426 3.979,90.506 3.977,91.107 3.886 C 91.708 3.795,91.120 3.722,89.800 3.724 C 88.480 3.726,87.988 3.801,88.707 3.890 M221.121 3.899 C 223.388 3.970,226.988 3.970,229.121 3.898 C 231.255 3.826,229.400 3.768,225.000 3.768 C 220.600 3.768,218.855 3.827,221.121 3.899 M266.000 4.005 C 277.679 4.401,341.065 4.963,340.788 4.668 C 340.671 4.544,328.431 4.351,313.588 4.238 C 298.745 4.126,279.940 3.959,271.800 3.867 C 259.852 3.733,258.734 3.759,266.000 4.005 M342.941 5.075 C 343.088 5.221,354.149 5.355,367.521 5.371 C 394.259 5.403,393.619 5.344,394.241 7.822 C 394.790 10.008,389.890 18.518,385.748 22.574 C 384.765 23.537,384.436 24.272,384.217 26.000 C 383.779 29.453,380.672 37.051,378.836 39.161 C 377.856 40.288,377.766 41.537,378.587 42.624 C 379.288 43.551,379.415 42.749,378.760 41.526 C 378.408 40.868,378.480 40.488,379.119 39.624 C 381.357 36.597,384.217 29.660,384.644 26.225 C 384.841 24.637,385.216 23.854,386.379 22.600 C 389.386 19.358,393.076 13.758,394.371 10.473 C 395.232 8.290,394.744 6.459,393.042 5.483 C 392.130 4.960,342.422 4.555,342.941 5.075 M105.800 6.823 C 95.460 6.984,71.430 7.136,52.400 7.160 C 18.863 7.203,9.803 7.380,8.781 8.012 C 7.910 8.550,8.696 10.138,12.012 14.543 C 16.549 20.569,15.631 20.222,27.902 20.544 C 43.745 20.960,45.943 21.223,44.825 22.570 C 44.423 23.054,43.459 23.207,40.651 23.232 C 38.643 23.249,35.470 23.424,33.600 23.620 C 31.730 23.816,27.887 24.151,25.059 24.363 C 17.980 24.895,17.293 25.682,19.662 30.535 C 20.109 31.451,20.781 32.829,21.156 33.597 C 22.277 35.899,24.360 36.799,28.400 36.724 L 31.800 36.662 28.400 36.419 C 23.471 36.066,22.439 35.425,20.650 31.602 C 18.850 27.757,18.758 26.158,20.300 25.539 C 21.531 25.045,39.239 23.896,40.800 24.209 C 41.350 24.319,43.600 24.220,45.800 23.990 C 48.000 23.760,52.050 23.500,54.800 23.413 C 60.895 23.220,70.000 22.348,70.000 21.957 C 70.000 21.338,64.160 20.790,55.400 20.588 C 50.340 20.471,41.250 20.191,35.200 19.965 C 29.150 19.739,23.120 19.655,21.800 19.778 C 18.789 20.059,16.454 19.520,15.510 18.324 C 12.947 15.080,9.137 9.901,8.946 9.403 C 8.354 7.860,9.646 7.803,46.600 7.731 C 66.180 7.692,93.990 7.494,108.400 7.290 C 131.524 6.961,207.706 7.187,278.200 7.792 C 289.420 7.888,311.020 8.058,326.200 8.170 C 369.081 8.484,388.156 8.898,388.917 9.530 C 389.951 10.389,386.674 16.058,382.851 20.025 C 381.804 21.111,381.150 22.000,381.397 22.000 C 382.713 22.000,390.149 11.452,389.927 9.899 C 389.741 8.593,388.824 8.501,375.400 8.441 C 368.800 8.412,360.790 8.201,357.600 7.972 C 351.967 7.568,344.649 7.497,329.800 7.701 C 325.840 7.755,308.470 7.670,291.200 7.510 C 202.618 6.692,131.166 6.428,105.800 6.823 M331.334 21.917 C 330.638 21.988,329.973 22.292,329.858 22.594 C 329.386 23.822,330.780 24.135,337.323 24.272 C 340.885 24.346,346.230 24.607,349.200 24.852 C 352.170 25.097,360.129 25.410,366.886 25.548 C 382.397 25.866,381.871 25.530,378.248 32.800 C 376.253 36.804,375.547 37.288,371.200 37.631 L 368.200 37.868 371.086 37.934 C 375.408 38.033,376.334 37.447,378.503 33.244 C 382.523 25.451,382.291 25.266,368.171 25.014 C 362.907 24.920,356.832 24.653,354.670 24.421 C 352.509 24.189,350.342 24.100,349.854 24.222 C 348.862 24.471,346.800 23.817,346.800 23.253 C 346.800 22.510,349.235 22.335,359.598 22.336 C 365.429 22.336,371.730 22.215,373.600 22.068 C 375.470 21.921,367.010 21.797,354.800 21.794 C 342.590 21.790,332.030 21.846,331.334 21.917 M342.456 22.800 C 342.891 22.800,343.136 22.980,343.000 23.200 C 342.689 23.703,339.726 23.728,339.419 23.230 C 339.160 22.812,340.324 22.416,341.133 22.648 C 341.426 22.731,342.021 22.800,342.456 22.800 M41.905 36.683 C 42.402 36.779,43.122 36.775,43.505 36.675 C 43.887 36.575,43.480 36.496,42.600 36.501 C 41.720 36.505,41.407 36.587,41.905 36.683 M34.100 37.096 C 35.365 37.175,37.435 37.175,38.700 37.096 C 39.965 37.016,38.930 36.951,36.400 36.951 C 33.870 36.951,32.835 37.016,34.100 37.096 M47.000 37.290 C 48.974 37.602,69.735 37.712,117.400 37.664 C 202.882 37.579,233.943 37.609,260.892 37.805 C 272.713 37.891,284.098 37.817,286.191 37.640 C 288.284 37.464,290.943 37.472,292.099 37.658 C 293.254 37.845,306.890 37.845,322.400 37.659 C 337.910 37.474,352.940 37.459,355.800 37.626 C 367.822 38.329,367.964 38.335,365.400 38.007 C 356.726 36.899,349.879 36.719,326.600 36.990 C 313.400 37.143,301.520 37.280,300.200 37.295 C 298.880 37.309,294.470 37.306,290.400 37.288 C 286.330 37.270,281.740 37.266,280.200 37.280 C 278.660 37.294,276.230 37.271,274.800 37.228 C 269.608 37.074,244.679 37.001,211.800 37.044 C 193.320 37.069,163.170 37.072,144.800 37.051 C 126.430 37.030,107.080 37.100,101.800 37.207 C 87.679 37.491,56.683 37.442,50.000 37.124 C 45.003 36.887,44.588 36.910,47.000 37.290 M34.105 40.828 C 31.489 41.620,31.600 40.017,31.600 77.153 L 31.600 110.746 32.700 111.517 C 34.957 113.101,38.334 112.851,39.694 111.000 C 39.856 110.780,39.991 95.355,39.994 76.722 L 40.000 42.845 39.100 41.809 C 38.071 40.624,36.074 40.232,34.105 40.828 M24.800 41.267 C 21.803 41.805,22.000 39.332,22.000 76.432 C 22.000 114.672,21.689 111.534,25.521 111.902 C 26.732 112.018,28.092 111.893,28.798 111.601 L 30.004 111.101 29.902 76.468 L 29.800 41.835 28.200 41.390 C 27.206 41.113,25.918 41.067,24.800 41.267 M38.700 42.122 L 39.600 42.939 39.600 76.830 L 39.600 110.721 38.177 111.560 C 36.647 112.463,33.765 112.163,32.800 111.001 C 32.257 110.346,32.217 43.456,32.759 42.487 C 33.689 40.825,37.044 40.619,38.700 42.122 M46.400 41.357 C 40.605 42.986,41.960 52.142,48.087 52.750 C 49.469 52.888,118.520 52.910,201.533 52.800 L 352.466 52.600 353.633 51.294 C 355.281 49.449,355.394 44.157,353.818 42.582 L 352.836 41.600 210.118 41.699 L 67.400 41.799 209.975 41.900 L 352.550 42.001 353.475 42.870 C 355.808 45.063,354.548 50.808,351.479 51.971 C 349.711 52.641,47.477 52.575,46.063 51.904 C 43.487 50.683,42.493 44.930,44.508 42.911 L 45.617 41.800 56.308 41.582 C 63.723 41.430,65.210 41.338,61.161 41.282 C 57.950 41.237,53.720 41.121,51.761 41.025 C 49.567 40.918,47.509 41.045,46.400 41.357 M28.826 42.014 C 29.582 42.418,29.600 43.225,29.600 76.624 L 29.600 110.820 28.500 111.246 C 27.245 111.733,23.676 111.436,23.031 110.791 C 22.568 110.328,22.147 45.733,22.591 43.327 C 22.726 42.598,23.120 41.976,23.513 41.873 C 24.854 41.521,28.064 41.606,28.826 42.014 M360.290 42.301 C 358.836 43.907,358.800 44.763,358.800 77.968 L 358.800 110.683 359.781 111.742 C 361.139 113.207,365.490 113.314,366.793 111.915 C 367.990 110.631,367.892 44.515,366.691 42.682 C 365.794 41.314,361.419 41.053,360.290 42.301 M370.029 42.654 C 368.722 44.315,368.722 110.085,370.029 111.746 C 371.219 113.258,375.135 113.301,376.618 111.818 L 377.600 110.836 377.599 77.518 C 377.597 38.510,377.955 41.600,373.435 41.600 C 371.128 41.600,370.771 41.710,370.029 42.654 M366.238 42.842 C 367.443 44.173,367.429 110.951,366.224 111.832 C 365.083 112.666,361.497 112.568,360.391 111.673 L 359.493 110.946 359.550 77.396 L 359.606 43.845 360.473 42.922 C 361.673 41.645,365.112 41.597,366.238 42.842 M376.069 42.662 C 376.766 43.293,376.800 44.887,376.800 77.130 C 376.800 115.537,377.099 112.405,373.438 112.394 C 369.321 112.382,369.600 114.959,369.600 76.952 L 369.600 43.852 370.470 42.926 C 371.559 41.767,374.905 41.609,376.069 42.662 M379.391 77.600 C 379.391 95.970,379.440 103.485,379.500 94.300 C 379.560 85.115,379.560 70.085,379.500 60.900 C 379.440 51.715,379.391 59.230,379.391 77.600 M355.785 54.367 C 355.573 54.574,354.500 55.107,353.400 55.550 C 352.300 55.994,351.760 56.364,352.200 56.373 C 352.640 56.383,353.773 55.948,354.718 55.408 C 355.929 54.716,356.490 54.570,356.620 54.913 C 356.721 55.181,356.758 173.480,356.702 317.800 L 356.600 580.200 351.600 580.200 L 346.600 580.200 346.400 324.400 L 346.200 68.600 199.621 68.499 C 97.527 68.429,52.913 68.527,52.621 68.819 C 52.327 69.113,52.224 146.390,52.279 324.305 C 52.334 504.812,52.232 579.520,51.930 579.885 C 51.068 580.923,42.459 580.582,42.200 579.500 C 42.081 579.005,42.033 460.970,42.092 317.200 L 42.200 55.800 43.600 55.913 C 44.370 55.974,45.990 56.094,47.200 56.178 L 49.400 56.330 47.200 55.946 C 45.990 55.735,44.280 55.525,43.400 55.481 L 41.800 55.400 41.700 317.776 C 41.620 527.414,41.700 580.216,42.100 580.470 C 42.684 580.841,51.236 580.915,52.169 580.556 C 52.748 580.334,52.803 557.770,52.798 324.925 C 52.794 184.462,52.894 69.371,53.019 69.168 C 53.158 68.945,110.817 68.800,199.624 68.800 L 346.000 68.800 346.000 324.592 L 346.000 580.385 346.900 580.608 C 347.395 580.732,349.870 580.780,352.400 580.716 L 357.000 580.600 357.000 317.433 C 357.000 136.003,356.871 54.224,356.585 54.128 C 356.357 54.052,355.997 54.160,355.785 54.367 M54.598 71.300 C 54.479 71.795,54.431 117.110,54.491 172.000 L 54.600 271.800 126.800 271.800 L 199.000 271.800 199.101 171.642 C 199.175 97.937,199.083 71.341,198.752 70.942 C 198.376 70.490,186.426 70.400,126.559 70.400 L 54.815 70.400 54.598 71.300 M201.280 70.880 C 200.581 71.579,200.581 270.821,201.280 271.520 C 202.045 272.285,343.327 272.211,343.963 271.445 C 344.818 270.414,344.582 71.533,343.725 70.900 C 342.754 70.184,201.996 70.164,201.280 70.880 M198.044 71.223 C 198.782 71.619,198.800 73.957,198.800 171.615 L 198.800 271.602 126.900 271.501 L 55.000 271.400 54.898 171.600 C 54.841 116.710,54.881 71.574,54.986 71.299 C 55.232 70.649,196.831 70.574,198.044 71.223 M343.363 71.229 C 343.547 71.414,343.830 266.632,343.651 270.500 L 343.600 271.600 272.656 271.600 L 201.712 271.600 201.487 269.423 C 200.895 263.685,201.392 71.576,202.000 71.188 C 202.644 70.778,342.952 70.819,343.363 71.229 M212.400 75.097 C 209.430 75.151,206.595 75.290,206.100 75.405 L 205.200 75.615 205.200 171.384 C 205.200 247.565,205.302 267.217,205.700 267.467 C 205.975 267.640,235.900 267.733,272.200 267.674 L 338.200 267.568 338.927 266.707 C 339.391 266.156,339.558 265.549,339.389 265.023 C 339.244 264.570,339.032 263.707,338.918 263.104 C 338.643 261.651,338.000 262.102,338.000 263.747 C 338.000 266.679,341.014 266.454,301.786 266.456 C 282.434 266.456,264.170 266.584,261.200 266.739 C 258.230 266.894,250.505 266.855,244.034 266.653 C 235.009 266.371,231.224 266.406,227.786 266.802 C 224.036 267.234,222.690 267.227,219.552 266.759 C 217.488 266.452,213.859 266.200,211.486 266.200 C 208.086 266.200,207.091 266.073,206.792 265.600 C 206.167 264.613,206.274 78.322,206.900 77.478 C 207.750 76.331,219.032 76.184,291.888 76.372 C 328.650 76.467,337.258 76.588,337.611 77.014 C 337.922 77.388,338.043 103.637,338.034 168.952 C 338.026 227.796,338.160 260.452,338.411 260.607 C 338.625 260.739,338.809 260.702,338.819 260.524 C 338.893 259.293,339.145 223.799,339.104 220.600 C 339.075 218.400,339.080 210.210,339.114 202.400 C 339.149 194.590,339.174 185.500,339.170 182.200 C 339.107 127.862,339.200 86.977,339.398 82.126 C 339.628 76.496,339.592 76.024,338.910 75.659 C 338.439 75.407,318.517 75.258,283.387 75.244 C 253.254 75.233,226.170 75.173,223.200 75.112 C 220.230 75.050,215.370 75.044,212.400 75.097 M65.406 75.493 C 62.770 75.566,60.470 75.770,60.294 75.946 C 60.119 76.121,59.997 118.640,60.024 170.432 C 60.051 222.225,60.054 265.098,60.030 265.707 C 59.954 267.629,60.439 267.665,83.790 267.444 C 95.675 267.332,105.670 267.225,106.000 267.207 C 108.824 267.051,192.219 267.615,192.780 267.794 C 194.543 268.353,194.606 267.794,194.503 252.371 C 194.450 244.357,194.403 236.810,194.399 235.600 C 194.395 234.390,194.465 215.220,194.554 193.000 C 194.820 126.944,194.819 120.748,194.539 108.000 C 194.204 92.789,194.205 92.589,194.674 83.600 C 194.886 79.530,194.923 76.015,194.755 75.789 C 194.470 75.405,78.031 75.138,65.406 75.493 M118.173 76.430 C 134.407 76.347,128.649 76.321,163.084 76.635 C 189.745 76.878,192.422 76.961,192.974 77.571 C 194.109 78.825,193.815 264.357,192.676 265.496 C 191.506 266.665,63.439 266.846,62.000 265.681 L 61.000 264.871 61.183 213.535 C 61.284 185.301,61.357 161.030,61.346 159.600 C 61.335 158.170,61.342 149.890,61.363 141.200 C 61.383 132.510,61.407 121.890,61.415 117.600 C 61.465 91.523,61.658 77.728,61.978 77.223 C 62.284 76.738,65.088 76.622,79.458 76.503 C 88.872 76.424,96.669 76.263,96.787 76.145 C 96.904 76.027,98.788 76.057,100.973 76.213 C 103.158 76.369,110.898 76.467,118.173 76.430 M206.045 77.315 C 205.718 77.642,205.600 77.597,205.600 77.147 C 205.600 76.352,206.138 75.814,206.337 76.410 C 206.421 76.663,206.290 77.070,206.045 77.315 M205.897 92.700 C 205.822 94.405,205.761 93.010,205.761 89.600 C 205.761 86.190,205.822 84.795,205.897 86.500 C 205.972 88.205,205.972 90.995,205.897 92.700 M205.883 100.095 C 205.787 100.593,205.705 100.280,205.701 99.400 C 205.696 98.520,205.775 98.113,205.875 98.495 C 205.975 98.878,205.979 99.598,205.883 100.095 M378.420 112.353 C 377.564 114.417,371.863 115.170,369.283 113.559 C 368.634 113.154,368.220 113.194,366.973 113.786 C 365.743 114.370,364.863 114.462,362.363 114.269 C 359.797 114.071,359.234 114.135,359.037 114.649 C 358.906 114.988,358.799 220.170,358.798 348.386 C 358.797 542.233,358.706 581.580,358.263 581.948 C 357.682 582.430,43.659 582.632,41.260 582.152 L 40.000 581.900 40.000 348.030 C 40.000 180.525,39.877 114.037,39.566 113.726 C 39.328 113.488,38.743 113.397,38.266 113.524 C 37.429 113.747,37.434 113.763,38.400 113.995 L 39.400 114.236 39.500 348.069 C 39.588 552.431,39.674 581.964,40.184 582.387 C 40.790 582.890,357.229 583.071,358.536 582.569 C 359.498 582.200,359.473 589.137,359.364 356.400 C 359.250 114.028,359.250 114.166,360.557 114.645 C 362.005 115.176,365.785 114.932,367.162 114.219 C 368.398 113.580,368.553 113.583,369.936 114.257 C 373.129 115.814,378.257 114.742,379.013 112.359 C 379.426 111.058,378.958 111.053,378.420 112.353 M29.887 113.046 C 29.751 113.182,29.046 113.446,28.320 113.633 C 27.082 113.953,27.099 113.962,28.600 113.778 C 30.694 113.521,31.133 113.523,32.800 113.797 L 34.200 114.027 32.600 113.420 C 30.846 112.754,30.260 112.673,29.887 113.046 M54.880 274.080 C 54.020 274.940,54.200 579.336,55.061 580.051 C 56.007 580.836,198.370 581.089,198.866 580.306 C 199.426 579.425,199.280 274.640,198.720 274.080 C 198.022 273.382,55.578 273.382,54.880 274.080 M201.500 274.032 C 200.605 274.553,200.386 579.426,201.280 580.320 C 202.031 581.071,343.326 581.012,343.949 580.261 C 344.277 579.867,344.399 547.218,344.405 458.361 C 344.420 255.996,344.485 274.942,343.771 274.229 C 343.006 273.463,202.810 273.269,201.500 274.032 M198.301 274.621 C 198.700 274.744,198.781 305.512,198.701 427.488 L 198.600 580.200 127.361 580.200 C 67.542 580.200,56.017 580.112,55.461 579.651 C 54.847 579.141,54.806 568.101,54.899 426.851 L 55.000 274.600 125.400 274.400 C 164.120 274.290,196.250 274.260,196.800 274.333 C 197.350 274.407,198.025 274.536,198.301 274.621 M343.369 274.809 C 343.876 275.316,344.020 578.662,343.513 579.700 C 342.982 580.789,201.761 580.789,201.460 579.700 C 201.181 578.691,201.178 278.132,201.456 276.104 L 201.690 274.407 222.145 274.304 C 266.174 274.081,342.961 274.401,343.369 274.809 M205.467 278.267 C 205.320 278.413,205.200 345.444,205.200 427.224 L 205.200 575.915 208.700 576.154 C 210.625 576.286,221.740 576.299,233.400 576.184 C 245.060 576.069,255.500 576.020,256.600 576.076 C 258.333 576.163,286.973 576.158,291.400 576.069 C 292.280 576.052,303.135 576.074,315.522 576.119 C 339.233 576.204,339.930 576.164,339.177 574.757 C 338.834 574.116,338.832 572.621,339.171 568.791 C 339.419 565.981,339.530 562.988,339.416 562.141 C 339.302 561.293,339.124 552.950,339.019 543.600 C 338.798 523.809,338.893 526.400,338.392 526.400 C 338.119 526.400,337.997 534.229,338.022 550.059 C 338.058 572.471,338.021 573.756,337.329 574.449 C 336.627 575.151,334.108 575.182,275.104 575.217 C 239.945 575.237,213.072 575.407,212.354 575.613 C 211.515 575.854,210.816 575.821,210.249 575.514 C 209.782 575.261,208.902 575.090,208.293 575.134 C 207.433 575.196,207.098 574.983,206.793 574.181 C 206.155 572.504,206.262 280.137,206.900 279.724 C 207.766 279.163,335.966 279.089,337.316 279.648 C 338.631 280.193,339.526 279.474,338.728 278.513 C 338.268 277.959,206.019 277.714,205.467 278.267 M60.293 278.866 C 60.057 279.012,59.871 279.732,59.881 280.466 C 59.946 285.169,60.033 367.520,60.012 404.000 C 59.998 428.090,59.989 448.151,59.993 448.580 C 59.999 449.195,60.104 449.256,60.489 448.871 C 60.973 448.387,61.304 423.997,61.164 399.200 C 60.887 350.501,61.277 280.955,61.829 280.400 C 62.620 279.605,74.994 279.224,80.481 279.826 C 83.003 280.102,85.385 280.122,87.281 279.882 C 88.887 279.679,94.250 279.568,99.200 279.636 C 104.150 279.703,112.160 279.752,117.000 279.743 C 121.840 279.735,130.030 279.732,135.200 279.738 C 140.370 279.744,145.950 279.723,147.600 279.692 C 149.250 279.661,152.580 279.655,155.000 279.679 C 157.420 279.702,160.255 279.693,161.300 279.657 C 162.345 279.621,164.235 279.555,165.500 279.511 C 170.195 279.345,192.216 280.118,192.654 280.464 C 192.950 280.697,193.202 283.704,193.377 289.111 C 193.524 293.670,193.734 300.100,193.842 303.400 C 193.951 306.700,194.016 310.030,193.986 310.800 C 193.660 319.419,193.680 379.631,194.011 382.045 C 194.282 384.023,194.295 385.706,194.049 386.845 C 193.518 389.302,193.250 482.521,193.574 552.000 C 193.661 570.579,193.594 573.505,193.069 574.200 C 192.169 575.391,62.664 575.703,61.775 574.516 C 61.173 573.712,61.144 570.051,61.161 497.600 C 61.169 463.837,61.070 455.134,60.680 455.647 C 60.023 456.513,59.796 486.112,60.404 491.638 C 60.704 494.359,60.707 496.530,60.415 498.878 C 59.994 502.271,59.970 506.462,60.118 550.989 L 60.200 575.777 61.863 576.062 C 62.778 576.218,67.098 576.254,71.463 576.142 C 75.828 576.030,80.750 575.992,82.400 576.057 C 84.050 576.122,86.435 576.134,87.700 576.083 C 91.269 575.940,95.460 575.876,99.400 575.903 C 101.380 575.916,106.960 575.928,111.800 575.929 C 116.640 575.929,122.580 575.962,125.000 576.001 C 129.957 576.081,136.696 576.129,138.800 576.098 C 139.570 576.087,144.700 576.080,150.200 576.084 C 183.126 576.105,194.489 576.045,194.685 575.848 C 194.806 575.727,194.858 571.256,194.800 565.914 C 194.709 557.600,194.410 443.814,194.460 436.400 C 194.470 434.970,194.483 432.450,194.491 430.800 C 194.498 429.150,194.517 426.270,194.533 424.400 C 194.549 422.530,194.541 414.790,194.517 407.200 C 194.492 399.610,194.479 392.410,194.488 391.200 C 194.505 388.932,194.483 351.041,194.456 337.200 C 194.448 332.910,194.498 318.197,194.568 304.505 C 194.667 284.916,194.587 279.521,194.192 279.194 C 193.631 278.728,61.042 278.403,60.293 278.866 M210.000 278.800 C 210.000 279.020,209.539 279.200,208.976 279.200 C 208.396 279.200,208.060 279.027,208.200 278.800 C 208.336 278.580,208.797 278.400,209.224 278.400 C 209.651 278.400,210.000 278.580,210.000 278.800 M246.600 278.800 C 246.282 279.314,238.796 279.314,238.000 278.800 C 237.594 278.538,238.926 278.410,242.124 278.406 C 245.172 278.402,246.760 278.542,246.600 278.800 M338.232 296.300 C 338.271 314.926,338.289 337.713,338.290 367.854 C 338.290 387.730,338.434 392.099,339.067 391.466 C 339.279 391.254,339.281 384.849,339.079 360.200 C 339.035 354.920,339.060 346.190,339.132 340.800 C 339.205 335.410,339.246 321.190,339.223 309.200 C 339.199 297.210,339.301 286.536,339.447 285.479 C 339.696 283.688,339.042 280.399,338.436 280.400 C 338.306 280.401,338.215 287.556,338.232 296.300 M205.895 324.900 C 205.814 326.055,205.748 325.110,205.748 322.800 C 205.748 320.490,205.814 319.545,205.895 320.700 C 205.976 321.855,205.976 323.745,205.895 324.900 M338.324 396.668 C 337.986 399.389,338.037 524.776,338.376 524.985 C 338.988 525.364,339.157 509.865,339.158 452.991 C 339.159 402.404,338.994 391.264,338.324 396.668 M206.108 573.100 C 206.233 574.549,206.172 575.506,205.962 575.377 C 205.763 575.253,205.600 574.053,205.600 572.710 C 205.600 569.654,205.825 569.827,206.108 573.100 " stroke="none" fill="#959e86" fill-rule="evenodd"></path><path id="path3" d="M100.200 2.558 C 98.220 2.763,93.270 2.941,89.200 2.953 C 81.993 2.973,81.904 2.984,85.800 3.342 C 88.436 3.585,92.119 3.558,96.600 3.261 C 104.495 2.740,135.976 2.551,150.800 2.936 C 156.410 3.082,186.536 3.294,217.747 3.406 C 248.957 3.519,274.616 3.686,274.766 3.779 C 274.916 3.872,287.990 4.044,303.820 4.161 C 319.649 4.278,337.280 4.487,343.000 4.626 C 348.720 4.765,362.130 4.906,372.800 4.940 C 393.823 5.005,393.396 4.960,394.508 7.255 C 395.609 9.529,391.758 16.800,386.379 22.600 C 385.216 23.854,384.841 24.637,384.644 26.225 C 384.216 29.666,381.356 36.598,379.112 39.634 C 378.618 40.302,378.431 40.927,378.630 41.248 C 378.808 41.537,379.093 42.409,379.263 43.186 C 379.490 44.225,379.518 44.030,379.366 42.454 C 379.212 40.849,379.318 40.133,379.784 39.618 C 380.944 38.335,384.303 30.220,384.925 27.195 C 385.439 24.697,385.801 23.918,387.071 22.574 C 388.628 20.928,389.323 19.952,392.461 15.000 C 395.795 9.739,396.134 8.177,394.398 6.077 C 393.070 4.471,391.837 4.398,366.073 4.406 C 352.364 4.411,341.014 4.332,340.851 4.231 C 340.688 4.131,330.035 3.933,317.177 3.793 C 304.320 3.652,287.860 3.469,280.600 3.385 C 273.340 3.302,249.310 3.115,227.200 2.970 C 205.090 2.824,179.440 2.644,170.200 2.570 C 127.065 2.221,103.501 2.217,100.200 2.558 M22.200 2.855 C 20.880 2.997,16.449 3.133,12.354 3.157 C 1.723 3.219,0.249 5.109,5.102 12.457 C 5.486 13.038,6.508 14.658,7.373 16.057 C 9.163 18.951,12.011 22.779,12.960 23.567 C 13.341 23.883,13.600 24.713,13.600 25.615 C 13.600 27.203,16.024 34.127,16.296 33.313 C 16.382 33.055,16.251 32.469,16.005 32.010 C 15.198 30.502,14.000 26.321,14.000 25.012 C 14.000 24.080,13.644 23.395,12.700 22.511 C 9.299 19.326,3.684 10.028,3.310 6.964 C 2.939 3.923,3.462 3.769,15.277 3.432 C 25.855 3.130,67.357 3.097,76.000 3.383 L 81.000 3.548 77.000 3.207 C 72.138 2.792,25.565 2.493,22.200 2.855 M106.600 7.245 C 94.280 7.450,67.730 7.659,47.600 7.709 C 9.621 7.805,8.354 7.861,8.946 9.403 C 9.137 9.901,12.947 15.080,15.510 18.324 C 16.454 19.520,18.789 20.059,21.800 19.778 C 23.120 19.655,29.150 19.739,35.200 19.965 C 41.250 20.191,50.340 20.471,55.400 20.588 C 64.160 20.790,70.000 21.338,70.000 21.957 C 70.000 22.348,60.895 23.220,54.800 23.413 C 52.050 23.500,48.000 23.760,45.800 23.990 C 43.600 24.220,41.350 24.319,40.800 24.209 C 37.083 23.465,19.192 25.355,19.206 26.490 C 19.210 26.822,19.315 26.853,19.506 26.581 C 20.261 25.503,23.661 25.192,38.978 24.801 C 47.727 24.577,55.018 24.313,55.179 24.213 C 55.686 23.900,76.387 23.029,81.200 23.119 C 87.279 23.232,89.605 22.254,87.100 20.638 C 86.358 20.160,85.569 20.128,82.600 20.461 C 80.022 20.749,78.339 20.734,76.671 20.406 C 75.258 20.128,67.471 19.867,56.871 19.741 C 47.262 19.627,37.510 19.484,35.200 19.424 C 32.890 19.364,27.874 19.289,24.054 19.257 L 17.108 19.200 15.711 17.700 C 13.671 15.508,9.600 9.986,9.600 9.409 C 9.600 8.217,16.286 7.974,49.000 7.975 C 66.820 7.976,114.610 7.839,155.200 7.672 C 209.063 7.450,219.373 7.346,193.365 7.284 C 173.766 7.238,151.266 7.127,143.365 7.037 C 135.464 6.947,118.920 7.041,106.600 7.245 M229.235 7.768 C 229.476 8.009,283.489 8.444,328.091 8.565 C 345.191 8.611,359.094 8.561,358.986 8.453 C 358.878 8.345,345.247 8.188,328.695 8.104 C 312.143 8.020,282.947 7.864,263.815 7.757 C 244.683 7.650,229.122 7.655,229.235 7.768 M374.200 9.177 C 387.522 9.395,388.800 9.517,388.800 10.562 C 388.800 11.373,383.366 19.389,382.086 20.466 L 380.932 21.438 368.766 21.305 C 362.075 21.232,351.470 21.112,345.200 21.038 C 338.930 20.964,330.290 21.076,326.000 21.287 C 316.826 21.737,317.892 21.727,315.375 21.383 C 313.384 21.111,312.000 21.699,312.000 22.818 C 312.000 23.604,314.462 24.460,315.983 24.203 C 318.487 23.780,321.375 23.686,321.800 24.013 C 322.020 24.183,325.980 24.439,330.600 24.582 C 335.220 24.725,342.960 25.099,347.800 25.413 C 352.640 25.727,361.100 26.001,366.600 26.021 C 381.578 26.076,381.057 25.807,378.118 31.968 C 375.810 36.808,375.886 36.765,368.400 37.438 L 363.000 37.924 368.400 37.714 C 375.602 37.435,376.052 37.211,378.249 32.800 C 381.870 25.530,382.397 25.866,366.886 25.548 C 360.129 25.410,352.170 25.097,349.200 24.852 C 346.230 24.607,340.867 24.346,337.282 24.271 C 330.470 24.128,329.142 23.787,330.000 22.400 C 330.323 21.877,333.631 21.800,355.830 21.800 L 381.289 21.800 383.103 19.800 C 384.989 17.720,388.253 12.984,389.079 11.130 C 390.003 9.056,389.639 9.002,374.439 8.977 L 360.600 8.955 374.200 9.177 M94.970 21.378 C 94.568 22.978,95.032 23.200,98.775 23.200 C 102.661 23.200,103.634 22.746,102.646 21.395 C 101.690 20.088,95.297 20.074,94.970 21.378 M289.819 21.337 C 289.118 21.849,289.127 21.904,290.031 22.537 C 291.270 23.405,292.515 23.378,293.341 22.465 C 294.493 21.193,291.380 20.195,289.819 21.337 M266.000 21.800 C 266.000 22.167,266.194 22.402,266.430 22.323 C 266.666 22.245,266.860 22.009,266.860 21.800 C 266.860 21.591,266.666 21.356,266.430 21.277 C 266.194 21.198,266.000 21.433,266.000 21.800 M303.100 22.276 C 302.014 22.559,302.250 23.600,303.400 23.600 C 304.133 23.600,304.400 23.387,304.400 22.800 C 304.400 21.985,304.327 21.955,303.100 22.276 M19.212 27.952 C 19.205 28.256,19.854 29.901,20.653 31.609 C 22.481 35.514,24.166 36.534,28.400 36.299 L 31.000 36.154 28.375 36.077 C 25.351 35.988,22.553 34.845,22.025 33.483 C 21.183 31.306,19.223 27.453,19.212 27.952 M16.400 34.162 C 16.400 34.718,18.300 37.716,19.442 38.963 C 20.972 40.632,21.048 40.896,20.200 41.600 C 19.586 42.110,19.239 108.530,19.835 111.450 C 20.287 113.667,21.632 114.194,27.000 114.254 C 29.640 114.284,33.465 114.329,35.500 114.354 L 39.200 114.400 39.200 348.124 C 39.200 542.824,39.289 581.969,39.736 582.580 C 40.313 583.369,52.851 583.910,54.006 583.197 C 54.288 583.022,51.417 582.871,47.626 582.861 C 42.958 582.849,40.551 582.691,40.167 582.373 C 39.680 581.968,39.587 549.225,39.500 348.051 L 39.400 114.200 35.400 113.919 C 33.200 113.764,31.040 113.651,30.600 113.666 C 23.495 113.918,22.018 113.797,21.111 112.889 L 20.200 111.978 20.091 77.245 C 19.996 46.555,20.054 42.453,20.591 42.007 C 21.544 41.217,21.326 40.466,19.565 38.466 C 18.666 37.444,17.686 36.022,17.386 35.304 C 16.924 34.199,16.400 33.592,16.400 34.162 M33.900 36.696 C 35.275 36.774,37.525 36.774,38.900 36.696 C 40.275 36.618,39.150 36.554,36.400 36.554 C 33.650 36.554,32.525 36.618,33.900 36.696 M51.200 37.054 C 57.124 37.524,62.788 37.586,79.600 37.365 C 103.808 37.046,101.519 37.056,145.000 37.075 C 163.260 37.083,193.320 37.069,211.800 37.044 C 230.280 37.020,251.340 37.039,258.600 37.088 C 265.860 37.136,272.790 37.181,274.000 37.188 C 275.210 37.195,278.450 37.175,281.200 37.144 C 283.950 37.114,287.460 37.092,289.000 37.097 C 290.540 37.102,296.030 37.089,301.200 37.068 C 330.649 36.946,357.007 37.033,359.800 37.261 C 362.615 37.491,362.808 37.467,361.400 37.061 C 360.042 36.670,318.706 36.513,281.000 36.757 C 275.875 36.790,273.052 36.781,259.400 36.681 C 253.240 36.637,221.560 36.647,189.000 36.704 C 156.440 36.761,127.730 36.778,125.200 36.741 C 122.670 36.704,114.030 36.722,106.000 36.781 C 84.196 36.942,56.590 36.884,49.800 36.663 L 43.800 36.467 51.200 37.054 M34.464 41.355 C 33.729 41.615,32.962 42.125,32.759 42.487 C 32.217 43.456,32.257 110.346,32.800 111.001 C 33.765 112.163,36.647 112.463,38.177 111.560 L 39.600 110.721 39.600 76.830 L 39.600 42.939 38.700 42.122 C 37.502 41.034,36.089 40.778,34.464 41.355 M25.200 41.868 C 28.823 42.230,29.197 42.382,29.254 43.518 C 29.307 44.568,29.314 44.571,29.492 43.622 C 29.758 42.206,28.664 41.588,26.024 41.664 C 24.579 41.706,24.290 41.777,25.200 41.868 M38.311 42.223 L 39.200 42.845 39.197 76.723 L 39.195 110.600 37.968 111.298 C 36.823 111.950,36.609 111.954,34.770 111.352 L 32.800 110.708 32.806 76.854 C 32.809 58.234,32.944 42.796,33.106 42.546 C 33.757 41.542,37.047 41.337,38.311 42.223 M46.200 41.886 C 41.455 43.034,42.859 51.955,47.824 52.200 C 48.911 52.254,49.260 52.224,48.600 52.134 C 45.350 51.693,44.049 50.030,43.887 46.111 C 43.725 42.224,43.681 42.238,56.710 41.982 L 67.800 41.764 57.400 41.729 C 51.680 41.709,46.640 41.780,46.200 41.886 M22.635 43.002 C 22.283 44.407,22.382 107.888,22.740 109.600 C 23.087 111.261,25.301 112.013,27.930 111.363 L 29.400 111.000 29.427 107.600 L 29.455 104.200 29.312 107.472 L 29.169 110.743 27.947 111.012 C 25.246 111.605,23.322 110.924,23.061 109.283 C 22.632 106.588,22.785 43.575,23.222 42.759 C 23.458 42.318,23.473 42.000,23.257 42.000 C 23.054 42.000,22.774 42.451,22.635 43.002 M71.700 42.298 C 73.845 42.370,77.355 42.370,79.500 42.298 C 81.645 42.226,79.890 42.167,75.600 42.167 C 71.310 42.167,69.555 42.226,71.700 42.298 M219.575 42.300 L 352.150 42.401 353.075 43.270 C 354.911 44.996,354.053 51.200,351.978 51.200 C 351.576 51.200,351.136 51.380,351.000 51.600 C 350.836 51.865,300.522 52.034,201.676 52.099 L 52.600 52.199 201.000 52.312 C 358.577 52.433,351.347 52.498,353.188 50.949 C 354.849 49.551,355.034 44.335,353.474 42.870 L 352.548 42.000 219.774 42.099 L 87.000 42.199 219.575 42.300 M360.473 42.922 L 359.606 43.845 359.550 77.396 L 359.493 110.946 360.391 111.673 C 361.497 112.568,365.083 112.666,366.224 111.832 C 367.429 110.951,367.443 44.173,366.238 42.842 C 365.112 41.597,361.673 41.645,360.473 42.922 M370.470 42.926 L 369.600 43.852 369.600 76.952 C 369.600 114.959,369.321 112.382,373.438 112.394 C 377.099 112.405,376.800 115.537,376.800 77.130 C 376.800 44.887,376.766 43.293,376.069 42.662 C 375.030 41.723,374.638 41.838,375.600 42.800 C 376.387 43.587,376.400 44.133,376.400 77.138 C 376.400 115.166,376.700 112.000,373.091 112.000 C 369.770 112.000,370.000 114.601,370.000 76.973 C 370.000 39.628,369.741 42.627,373.000 42.297 L 374.600 42.134 372.970 42.067 C 371.727 42.016,371.133 42.220,370.470 42.926 M366.086 43.300 C 366.902 44.729,366.977 109.844,366.164 111.100 C 365.482 112.154,361.930 112.377,360.700 111.443 C 359.649 110.645,359.612 44.292,360.662 43.131 C 361.701 41.984,365.400 42.098,366.086 43.300 M354.600 55.455 L 353.000 56.388 199.000 56.248 C 114.300 56.171,44.370 56.039,43.600 55.954 L 42.200 55.800 42.092 317.200 C 42.033 460.970,42.081 579.005,42.200 579.500 C 42.459 580.583,51.068 580.922,51.931 579.884 C 52.235 579.517,52.326 505.599,52.244 325.423 C 52.181 185.753,52.256 70.786,52.411 69.939 C 52.689 68.418,52.311 67.811,51.844 69.030 C 51.711 69.376,51.607 179.491,51.612 313.730 C 51.618 447.968,51.618 562.795,51.611 568.900 L 51.600 580.000 47.243 580.000 C 43.722 580.000,42.841 579.884,42.653 579.395 C 42.267 578.389,42.402 57.043,42.789 56.418 C 43.077 55.952,43.338 55.934,44.190 56.323 C 46.333 57.299,352.675 56.981,354.504 56.000 C 355.325 55.560,356.088 55.200,356.199 55.200 C 356.309 55.200,356.400 173.280,356.400 317.600 L 356.400 580.000 351.600 580.000 L 346.800 580.000 346.800 324.480 C 346.800 126.276,346.692 68.852,346.320 68.480 C 345.948 68.108,312.879 68.022,199.420 68.099 L 53.000 68.198 199.600 68.399 L 346.200 68.600 346.400 324.400 L 346.600 580.200 351.600 580.200 L 356.600 580.200 356.700 317.620 C 356.755 173.201,356.665 54.924,356.500 54.781 C 356.335 54.638,355.480 54.941,354.600 55.455 M54.986 71.299 C 54.881 71.574,54.841 116.710,54.898 171.600 L 55.000 271.400 126.900 271.501 L 198.800 271.602 198.800 171.615 C 198.800 73.957,198.782 71.619,198.044 71.223 C 196.831 70.574,55.232 70.649,54.986 71.299 M202.000 71.188 C 201.392 71.576,200.895 263.685,201.487 269.423 L 201.712 271.600 272.656 271.600 L 343.600 271.600 343.651 270.500 C 343.830 266.632,343.547 71.414,343.363 71.229 C 342.952 70.819,202.644 70.778,202.000 71.188 M197.700 71.464 C 198.364 71.644,198.400 76.744,198.400 171.427 L 198.400 271.200 126.800 271.200 L 55.200 271.200 55.200 171.433 C 55.200 91.994,55.302 71.626,55.700 71.465 C 56.334 71.209,196.755 71.208,197.700 71.464 M342.959 71.625 C 343.121 71.788,343.350 247.260,343.216 268.700 L 343.200 271.200 272.600 271.200 L 202.000 271.200 201.990 251.500 C 201.935 139.207,202.003 71.918,202.174 71.642 C 202.401 71.275,342.592 71.259,342.959 71.625 M65.426 74.713 C 62.448 74.777,60.029 75.010,59.726 75.261 C 59.294 75.620,59.200 92.786,59.200 171.255 L 59.200 266.812 60.464 267.581 C 62.089 268.569,193.347 268.766,194.692 267.782 C 195.725 267.027,195.938 75.979,194.907 75.123 C 194.333 74.647,84.464 74.299,65.426 74.713 M205.700 74.821 L 204.800 75.174 204.800 171.013 C 204.800 236.313,204.932 267.099,205.214 267.626 C 205.831 268.779,338.284 268.852,339.283 267.700 C 340.135 266.717,340.381 75.483,339.531 74.957 C 338.810 74.512,206.831 74.377,205.700 74.821 M283.387 75.244 C 318.517 75.258,338.439 75.407,338.910 75.659 C 339.592 76.024,339.628 76.496,339.398 82.126 C 339.200 86.977,339.107 127.862,339.170 182.200 C 339.174 185.500,339.149 194.590,339.114 202.400 C 339.080 210.210,339.075 218.400,339.104 220.600 C 339.145 223.799,338.893 259.293,338.819 260.524 C 338.809 260.702,338.625 260.739,338.411 260.607 C 338.160 260.452,338.026 227.796,338.034 168.952 C 338.043 103.637,337.922 77.388,337.611 77.014 C 337.258 76.588,328.650 76.467,291.888 76.372 C 219.032 76.184,207.750 76.331,206.900 77.478 C 206.274 78.322,206.167 264.613,206.792 265.600 C 207.091 266.073,208.086 266.200,211.486 266.200 C 213.859 266.200,217.488 266.452,219.552 266.759 C 222.690 267.227,224.036 267.234,227.786 266.802 C 231.224 266.406,235.009 266.371,244.034 266.653 C 250.505 266.855,258.230 266.894,261.200 266.739 C 264.170 266.584,282.434 266.456,301.786 266.456 C 341.014 266.454,338.000 266.679,338.000 263.747 C 338.000 262.102,338.643 261.651,338.918 263.104 C 339.032 263.707,339.244 264.570,339.389 265.023 C 339.558 265.549,339.391 266.156,338.927 266.707 L 338.200 267.568 272.200 267.674 C 235.900 267.733,205.975 267.640,205.700 267.467 C 205.302 267.217,205.200 247.565,205.200 171.384 L 205.200 75.615 206.100 75.405 C 207.286 75.128,216.421 74.971,223.200 75.112 C 226.170 75.173,253.254 75.233,283.387 75.244 M194.755 75.789 C 194.923 76.015,194.886 79.530,194.674 83.600 C 194.205 92.589,194.204 92.789,194.539 108.000 C 194.819 120.748,194.820 126.944,194.554 193.000 C 194.465 215.220,194.395 234.390,194.399 235.600 C 194.403 236.810,194.450 244.357,194.503 252.371 C 194.606 267.794,194.543 268.353,192.780 267.794 C 192.219 267.615,108.824 267.051,106.000 267.207 C 105.670 267.225,95.675 267.332,83.790 267.444 C 60.439 267.665,59.954 267.629,60.030 265.707 C 60.054 265.098,60.051 222.225,60.024 170.432 C 59.997 118.640,60.119 76.121,60.294 75.946 C 61.034 75.206,194.207 75.050,194.755 75.789 M96.787 76.145 C 96.669 76.263,88.872 76.424,79.458 76.503 C 65.088 76.622,62.284 76.738,61.978 77.223 C 61.658 77.728,61.465 91.523,61.415 117.600 C 61.407 121.890,61.383 132.510,61.363 141.200 C 61.342 149.890,61.335 158.170,61.346 159.600 C 61.357 161.030,61.284 185.301,61.183 213.535 L 61.000 264.871 62.000 265.681 C 63.439 266.846,191.506 266.665,192.676 265.496 C 193.815 264.357,194.109 78.825,192.974 77.571 C 192.422 76.961,189.745 76.878,163.084 76.635 C 128.649 76.321,134.407 76.347,118.173 76.430 C 110.898 76.467,103.158 76.369,100.973 76.213 C 98.788 76.057,96.904 76.027,96.787 76.145 M336.915 77.561 C 337.357 77.995,337.365 264.795,336.923 265.237 C 336.232 265.928,207.629 265.892,207.188 265.200 C 206.517 264.149,206.746 78.511,207.418 77.839 C 207.861 77.396,210.724 77.282,222.247 77.248 C 230.101 77.225,236.573 77.160,236.630 77.103 C 236.898 76.835,336.640 77.291,336.915 77.561 M192.437 77.877 C 193.064 78.504,192.926 264.872,192.299 265.271 C 191.504 265.776,62.498 265.682,62.185 265.177 C 61.665 264.335,61.990 78.294,62.513 77.664 C 63.093 76.965,191.736 77.176,192.437 77.877 M29.320 94.000 C 29.320 95.210,29.395 95.705,29.487 95.100 C 29.578 94.495,29.578 93.505,29.487 92.900 C 29.395 92.295,29.320 92.790,29.320 94.000 M379.087 111.866 C 378.529 114.654,373.464 115.977,369.936 114.257 C 368.553 113.583,368.398 113.580,367.162 114.219 C 365.785 114.932,362.005 115.176,360.557 114.645 C 359.250 114.166,359.250 114.028,359.364 356.400 C 359.473 590.200,359.504 582.198,358.503 582.582 C 358.160 582.714,322.761 582.822,279.839 582.822 C 236.918 582.822,201.592 582.952,201.338 583.111 C 200.743 583.484,357.519 583.425,358.660 583.052 C 360.035 582.603,359.997 585.825,359.982 469.537 C 359.974 408.302,359.975 303.546,359.984 236.746 L 360.000 115.292 362.531 115.495 C 364.481 115.652,365.468 115.522,366.831 114.930 C 368.403 114.246,368.727 114.223,369.741 114.722 C 374.040 116.835,380.605 114.416,379.508 111.123 C 379.414 110.842,379.225 111.177,379.087 111.866 M125.400 274.400 L 55.000 274.600 54.899 426.851 C 54.806 568.101,54.847 579.141,55.461 579.651 C 56.017 580.112,67.542 580.200,127.361 580.200 L 198.600 580.200 198.701 427.488 C 198.781 305.512,198.700 274.744,198.301 274.621 C 198.025 274.536,197.350 274.407,196.800 274.333 C 196.250 274.260,164.120 274.290,125.400 274.400 M222.145 274.304 L 201.690 274.407 201.456 276.104 C 201.178 278.132,201.181 578.691,201.460 579.700 C 201.761 580.789,342.982 580.789,343.513 579.700 C 344.020 578.662,343.876 275.316,343.369 274.809 C 342.961 274.401,266.174 274.081,222.145 274.304 M198.400 427.409 L 198.400 580.017 127.700 579.897 C 88.815 579.832,56.595 579.627,56.100 579.442 L 55.200 579.107 55.200 427.220 C 55.200 343.682,55.320 275.213,55.467 275.067 C 55.613 274.920,87.833 274.800,127.067 274.800 L 198.400 274.800 198.400 427.409 M342.978 275.165 C 343.190 275.507,343.287 369.605,343.227 515.700 L 343.200 580.000 272.600 580.000 L 202.000 580.000 201.990 532.900 C 201.953 350.326,202.020 275.492,202.218 275.171 C 202.524 274.676,342.673 274.670,342.978 275.165 M205.067 277.867 C 204.920 278.013,204.800 345.240,204.800 427.259 L 204.800 576.385 205.900 576.692 C 207.256 577.072,338.337 577.097,339.274 576.718 C 340.252 576.322,340.179 278.610,339.200 277.992 C 338.517 277.559,205.498 277.436,205.067 277.867 M59.664 278.523 C 59.335 278.919,59.223 434.375,59.538 453.400 C 59.549 454.060,59.499 481.835,59.426 515.121 L 59.293 575.642 60.329 576.321 C 61.724 577.235,193.555 577.387,194.855 576.476 C 196.026 575.656,195.861 280.439,194.688 278.948 L 193.942 278.000 127.020 278.000 C 72.432 278.000,60.018 278.096,59.664 278.523 M338.728 278.513 C 339.500 279.444,338.622 280.229,337.421 279.682 C 336.298 279.171,254.143 279.052,243.600 279.547 C 240.630 279.686,260.272 279.745,287.250 279.679 C 331.180 279.570,336.365 279.622,336.922 280.179 C 337.631 280.888,337.645 573.315,336.935 574.025 C 336.310 574.650,207.545 574.556,207.148 573.930 C 206.564 573.008,206.719 280.499,207.303 280.130 C 207.576 279.958,214.445 279.768,222.568 279.707 C 230.690 279.647,237.431 279.502,237.549 279.384 C 237.899 279.034,207.444 279.371,206.900 279.724 C 206.262 280.137,206.155 572.504,206.793 574.181 C 207.098 574.983,207.433 575.196,208.293 575.134 C 208.902 575.090,209.782 575.261,210.249 575.514 C 210.816 575.821,211.515 575.854,212.354 575.613 C 213.072 575.407,239.945 575.237,275.104 575.217 C 334.108 575.182,336.627 575.151,337.329 574.449 C 338.021 573.756,338.058 572.471,338.022 550.059 C 337.997 534.229,338.119 526.400,338.392 526.400 C 338.893 526.400,338.798 523.809,339.019 543.600 C 339.124 552.950,339.302 561.293,339.416 562.141 C 339.530 562.988,339.419 565.981,339.171 568.791 C 338.832 572.621,338.834 574.116,339.177 574.757 C 339.930 576.164,339.233 576.204,315.522 576.119 C 303.135 576.074,292.280 576.052,291.400 576.069 C 286.973 576.158,258.333 576.163,256.600 576.076 C 255.500 576.020,245.060 576.069,233.400 576.184 C 221.740 576.299,210.625 576.286,208.700 576.154 L 205.200 575.915 205.200 427.224 C 205.200 345.444,205.320 278.413,205.467 278.267 C 206.019 277.714,338.268 277.959,338.728 278.513 M194.192 279.194 C 194.587 279.521,194.667 284.916,194.568 304.505 C 194.498 318.197,194.448 332.910,194.456 337.200 C 194.483 351.041,194.505 388.932,194.488 391.200 C 194.479 392.410,194.492 399.610,194.517 407.200 C 194.541 414.790,194.549 422.530,194.533 424.400 C 194.517 426.270,194.498 429.150,194.491 430.800 C 194.483 432.450,194.470 434.970,194.460 436.400 C 194.410 443.814,194.709 557.600,194.800 565.914 C 194.858 571.256,194.806 575.727,194.685 575.848 C 194.489 576.045,183.126 576.105,150.200 576.084 C 144.700 576.080,139.570 576.087,138.800 576.098 C 136.696 576.129,129.957 576.081,125.000 576.001 C 122.580 575.962,116.640 575.929,111.800 575.929 C 106.960 575.928,101.380 575.916,99.400 575.903 C 95.460 575.876,91.269 575.940,87.700 576.083 C 86.435 576.134,84.050 576.122,82.400 576.057 C 80.750 575.992,75.828 576.030,71.463 576.142 C 67.098 576.254,62.778 576.218,61.863 576.062 L 60.200 575.777 60.118 550.989 C 59.970 506.462,59.994 502.271,60.415 498.878 C 60.707 496.530,60.704 494.359,60.404 491.638 C 59.796 486.112,60.023 456.513,60.680 455.647 C 61.070 455.134,61.169 463.837,61.161 497.600 C 61.144 570.051,61.173 573.712,61.775 574.516 C 62.664 575.703,192.169 575.391,193.069 574.200 C 193.594 573.505,193.661 570.579,193.574 552.000 C 193.250 482.521,193.518 389.302,194.049 386.845 C 194.295 385.706,194.282 384.023,194.011 382.045 C 193.680 379.631,193.660 319.419,193.986 310.800 C 194.016 310.030,193.951 306.700,193.842 303.400 C 193.734 300.100,193.524 293.670,193.377 289.111 C 193.202 283.704,192.950 280.697,192.654 280.464 C 192.216 280.118,170.195 279.345,165.500 279.511 C 164.235 279.555,162.345 279.621,161.300 279.657 C 160.255 279.693,157.420 279.702,155.000 279.679 C 152.580 279.655,149.250 279.661,147.600 279.692 C 145.950 279.723,140.370 279.744,135.200 279.738 C 130.030 279.732,121.840 279.735,117.000 279.743 C 112.160 279.752,104.150 279.703,99.200 279.636 C 94.250 279.568,88.887 279.679,87.281 279.882 C 85.385 280.122,83.003 280.102,80.481 279.826 C 74.994 279.224,62.620 279.605,61.829 280.400 C 61.277 280.955,60.887 350.501,61.164 399.200 C 61.304 423.997,60.973 448.387,60.489 448.871 C 60.104 449.256,59.999 449.195,59.993 448.580 C 59.989 448.151,59.998 428.090,60.012 404.000 C 60.033 367.520,59.946 285.169,59.881 280.466 C 59.871 279.732,60.057 279.012,60.293 278.866 C 61.042 278.403,193.631 278.728,194.192 279.194 M192.429 281.069 C 192.886 281.526,193.038 573.291,192.582 574.029 C 192.265 574.542,62.519 574.516,62.202 574.003 C 61.734 573.246,61.947 281.545,62.416 280.981 C 62.994 280.284,191.731 280.371,192.429 281.069 M339.193 281.979 C 339.521 282.974,339.616 284.270,339.447 285.479 C 339.301 286.536,339.199 297.210,339.223 309.200 C 339.246 321.190,339.205 335.410,339.132 340.800 C 339.060 346.190,339.035 354.920,339.079 360.200 C 339.281 384.849,339.279 391.254,339.067 391.466 C 338.434 392.099,338.290 387.730,338.290 367.854 C 338.289 337.713,338.271 314.926,338.232 296.300 C 338.200 280.165,338.266 279.171,339.193 281.979 M339.158 452.991 C 339.157 509.865,338.988 525.364,338.376 524.985 C 338.037 524.776,337.986 399.389,338.324 396.668 C 338.994 391.264,339.159 402.404,339.158 452.991 M57.600 583.190 C 55.950 583.305,87.304 583.396,127.275 583.391 C 167.247 583.387,200.085 583.248,200.250 583.083 C 200.582 582.751,62.381 582.854,57.600 583.190 " stroke="none" fill="#b5b39e" fill-rule="evenodd"></path></g></svg>