<svg id="svg" version="1.1" xmlns="http://www.w3.org/2000/svg" xmlns:xlink="http://www.w3.org/1999/xlink" width="400" height="691.03690685413" viewBox="0, 0, 400,691.03690685413"><g id="svgg"><path id="path0" d="M0.009 3.700 L 0.018 7.400 0.745 5.800 C 2.587 1.752,5.675 2.276,7.813 7.000 C 8.311 8.100,9.187 9.683,9.759 10.518 C 10.332 11.353,10.800 12.114,10.800 12.210 C 10.800 12.306,11.430 13.369,12.200 14.573 C 12.970 15.777,13.600 16.909,13.600 17.090 C 13.600 17.270,14.230 18.375,15.000 19.544 C 15.770 20.713,16.400 21.737,16.400 21.819 C 16.400 21.902,17.390 23.423,18.600 25.200 C 19.810 26.977,20.800 28.524,20.800 28.637 C 20.800 28.750,21.583 30.048,22.541 31.521 C 24.247 34.146,30.400 44.722,30.400 45.029 C 30.400 45.114,30.991 46.133,31.714 47.292 C 32.437 48.452,33.529 50.390,34.139 51.600 C 35.290 53.879,35.751 54.697,36.843 56.398 C 37.662 57.675,39.293 60.585,41.327 64.400 C 44.612 70.561,47.127 75.104,49.188 78.600 C 50.355 80.580,52.124 83.730,53.120 85.600 C 54.115 87.470,55.395 89.723,55.965 90.607 C 57.381 92.805,57.338 92.732,62.832 102.200 C 65.513 106.820,67.997 111.093,68.353 111.696 C 74.201 121.601,75.758 124.290,77.204 126.988 C 78.143 128.741,79.276 130.811,79.721 131.588 C 80.167 132.364,80.783 133.450,81.091 134.000 C 81.400 134.550,82.045 135.671,82.526 136.491 C 83.007 137.310,83.915 138.930,84.545 140.091 C 85.174 141.251,85.915 142.470,86.191 142.800 C 86.899 143.646,91.200 151.056,91.200 151.429 C 91.200 151.598,91.441 152.021,91.736 152.369 C 92.031 152.716,93.048 154.793,93.996 156.984 C 94.944 159.175,96.232 161.837,96.860 162.901 C 97.487 163.965,98.000 164.933,98.000 165.053 C 98.000 165.173,99.595 168.000,101.545 171.336 C 103.495 174.671,106.345 179.836,107.879 182.813 C 110.771 188.428,114.937 195.698,118.674 201.650 C 120.833 205.088,121.941 207.142,126.953 217.000 C 128.407 219.860,130.246 223.370,131.039 224.800 C 131.832 226.230,133.037 228.480,133.716 229.800 C 134.396 231.120,135.342 232.740,135.819 233.400 C 136.296 234.060,138.090 237.120,139.806 240.200 C 141.523 243.280,143.988 247.556,145.285 249.703 C 146.582 251.850,148.284 254.910,149.067 256.503 C 149.851 258.096,150.917 260.120,151.436 261.000 C 151.956 261.880,152.547 262.968,152.750 263.419 C 152.952 263.869,154.028 265.777,155.140 267.659 C 156.251 269.541,157.853 272.413,158.699 274.041 C 159.544 275.668,160.512 277.450,160.848 278.000 C 163.485 282.308,164.917 284.809,167.035 288.800 C 170.385 295.112,174.005 301.717,174.380 302.200 C 174.551 302.420,176.602 306.334,178.939 310.897 C 182.781 318.402,183.958 320.577,185.495 323.015 C 185.767 323.447,186.847 325.386,187.895 327.324 C 188.943 329.263,191.285 333.356,193.100 336.420 C 194.915 339.484,196.400 342.153,196.400 342.351 C 196.400 342.550,197.246 343.857,198.279 345.256 C 200.573 348.361,202.199 350.935,206.452 358.200 C 208.256 361.280,210.123 364.340,210.601 365.000 C 211.079 365.660,212.984 368.771,214.835 371.914 C 216.686 375.057,219.151 379.197,220.314 381.114 C 221.477 383.031,223.054 385.860,223.819 387.400 C 224.583 388.940,225.882 391.236,226.704 392.501 C 229.753 397.193,234.367 404.719,236.575 408.600 C 237.826 410.800,239.004 412.870,239.193 413.200 C 239.382 413.530,240.111 414.880,240.813 416.200 C 241.515 417.520,242.609 419.374,243.245 420.320 C 243.880 421.266,244.400 422.153,244.400 422.291 C 244.400 422.429,245.002 423.455,245.738 424.571 C 249.030 429.563,251.030 432.647,251.400 433.301 C 251.987 434.338,256.480 441.831,260.096 447.800 C 264.824 455.607,268.000 461.092,268.000 461.451 C 268.000 461.575,268.369 462.195,268.820 462.828 C 269.271 463.461,270.869 466.382,272.373 469.318 C 275.469 475.367,278.359 480.806,278.793 481.400 C 278.953 481.620,279.625 482.790,280.284 484.000 C 282.451 487.974,283.667 490.135,286.586 495.200 C 288.170 497.950,290.786 502.540,292.397 505.400 C 294.009 508.260,295.913 511.500,296.629 512.600 C 297.345 513.700,298.640 515.950,299.507 517.600 C 301.476 521.347,301.947 522.175,303.328 524.319 C 303.936 525.265,304.610 526.435,304.824 526.919 C 305.038 527.404,305.678 528.610,306.246 529.600 C 306.813 530.590,308.081 532.930,309.064 534.800 C 312.506 541.352,317.445 549.774,318.227 550.423 C 318.542 550.684,318.800 551.082,318.800 551.308 C 318.800 551.533,319.395 552.456,320.123 553.359 C 321.446 555.002,323.722 558.574,324.452 560.158 C 324.666 560.621,325.278 561.720,325.813 562.600 C 326.347 563.480,327.010 564.650,327.287 565.200 C 327.943 566.504,330.614 571.025,332.948 574.782 C 333.966 576.421,334.800 577.900,334.800 578.067 C 334.800 578.436,338.078 583.900,339.798 586.400 C 340.479 587.390,341.554 589.190,342.187 590.400 C 343.818 593.520,344.184 594.156,346.729 598.289 C 351.586 606.178,356.554 614.655,358.480 618.343 C 359.588 620.464,360.801 622.560,361.175 623.000 C 361.550 623.440,363.453 626.500,365.404 629.800 C 367.355 633.100,369.970 637.510,371.215 639.600 C 372.460 641.690,374.221 644.816,375.128 646.546 C 376.035 648.276,376.941 649.896,377.141 650.146 C 377.341 650.396,378.629 652.760,380.004 655.400 C 381.379 658.040,383.090 661.100,383.806 662.200 C 384.522 663.300,385.873 665.640,386.808 667.400 C 390.093 673.585,391.122 675.437,393.550 679.533 C 396.294 684.162,396.680 686.060,395.158 687.438 C 394.343 688.175,393.302 688.197,362.858 688.106 C 345.556 688.055,310.250 688.055,284.400 688.106 C 185.841 688.303,79.056 688.025,74.132 687.560 C 70.651 687.230,44.004 686.790,19.200 686.652 C 8.171 686.590,5.581 686.346,4.254 685.244 C 3.822 684.886,2.878 608.545,3.058 588.600 C 3.068 587.500,3.118 562.210,3.170 532.400 C 3.245 488.700,3.372 477.270,3.828 473.400 C 4.517 467.548,4.637 392.250,3.966 387.200 C 3.716 385.321,3.500 351.762,3.387 297.386 C 3.285 248.765,3.044 208.994,2.837 206.986 C 2.609 204.767,2.615 200.578,2.852 196.000 C 3.253 188.271,3.178 179.473,2.486 153.400 C 2.258 144.820,1.961 119.710,1.825 97.600 C 1.689 75.490,1.401 54.610,1.186 51.200 C 0.970 47.790,0.715 37.375,0.619 28.055 C 0.523 18.736,0.344 11.011,0.222 10.889 C 0.100 10.767,-0.000 163.697,-0.000 350.733 L 0.000 690.800 200.000 690.800 L 400.000 690.800 400.000 345.400 L 400.000 0.000 200.000 0.000 L 0.000 0.000 0.009 3.700 M6.693 41.879 C 6.760 54.815,7.006 67.830,7.241 70.800 C 7.477 73.770,7.735 84.840,7.817 95.400 C 7.898 105.960,8.174 116.670,8.430 119.200 C 8.748 122.336,8.805 127.301,8.608 134.800 C 8.228 149.257,8.301 159.290,9.052 196.000 C 9.413 213.624,9.556 229.738,9.389 234.000 C 9.084 241.779,8.728 263.529,8.799 270.000 C 9.074 295.079,9.226 312.792,9.205 317.243 C 9.184 321.871,9.280 322.769,9.852 323.243 C 10.462 323.749,102.430 323.885,166.479 323.474 C 180.028 323.387,179.458 323.594,177.287 319.546 C 175.500 316.214,173.050 311.555,168.796 303.400 C 167.189 300.320,165.126 296.630,164.210 295.200 C 163.295 293.770,162.126 291.880,161.612 291.000 C 161.097 290.120,160.074 288.469,159.338 287.332 C 158.602 286.195,158.000 285.158,158.000 285.029 C 158.000 284.899,157.055 283.126,155.900 281.088 C 154.745 279.051,153.467 276.667,153.060 275.792 C 150.888 271.122,149.447 268.488,143.059 257.521 C 141.817 255.388,140.800 253.531,140.800 253.395 C 140.800 253.258,140.371 252.574,139.846 251.873 C 139.322 251.173,138.295 249.430,137.564 248.000 C 136.833 246.570,135.732 244.698,135.118 243.840 C 134.503 242.982,134.000 242.078,134.000 241.831 C 134.000 241.584,133.359 240.409,132.576 239.219 C 130.532 236.116,128.430 232.439,125.818 227.400 C 124.564 224.980,123.383 222.730,123.194 222.400 C 119.878 216.622,118.800 214.693,118.800 214.538 C 118.800 214.435,117.209 211.707,115.265 208.475 C 113.320 205.244,110.781 200.710,109.622 198.400 C 108.463 196.090,106.079 191.770,104.326 188.800 C 99.299 180.287,98.103 178.151,94.581 171.400 C 91.783 166.036,90.558 163.760,88.988 161.000 C 88.487 160.120,86.799 156.880,85.236 153.800 C 83.673 150.720,81.882 147.300,81.255 146.200 C 79.157 142.518,78.549 141.420,76.603 137.800 C 75.538 135.820,73.724 132.580,72.571 130.600 C 71.419 128.620,69.770 125.650,68.907 124.000 C 67.577 121.459,66.223 118.946,63.839 114.600 C 63.597 114.160,63.195 113.530,62.945 113.200 C 62.695 112.870,61.963 111.610,61.317 110.400 C 60.262 108.421,58.534 105.413,56.760 102.464 C 54.956 99.465,50.107 91.515,48.842 89.482 C 48.049 88.207,47.217 86.857,46.993 86.482 C 41.276 76.892,40.032 74.727,39.791 73.939 C 39.632 73.423,39.329 72.783,39.117 72.518 C 38.906 72.253,38.419 71.443,38.036 70.718 C 35.856 66.592,33.656 62.610,31.943 59.688 C 30.874 57.866,30.000 56.294,30.000 56.195 C 30.000 56.097,29.347 54.977,28.548 53.708 C 25.417 48.732,24.282 46.959,23.591 45.965 C 23.196 45.395,22.101 43.505,21.159 41.765 C 20.216 40.024,18.625 37.325,17.623 35.767 C 16.620 34.209,15.350 32.181,14.800 31.260 C 14.250 30.340,12.675 27.844,11.300 25.715 C 9.925 23.586,8.800 21.634,8.800 21.376 C 8.800 21.119,8.299 20.334,7.686 19.633 L 6.573 18.357 6.693 41.879 M78.688 329.445 C 78.616 329.517,63.122 329.596,44.256 329.620 L 9.956 329.664 9.545 330.732 C 9.302 331.363,9.243 332.985,9.401 334.700 C 9.607 336.935,10.181 441.472,10.086 459.400 C 9.992 477.035,9.086 518.208,8.757 519.800 C 8.508 521.004,8.428 524.824,8.557 529.400 C 8.675 533.580,8.955 558.510,9.179 584.800 C 9.403 611.090,9.762 636.740,9.976 641.800 C 10.191 646.860,10.478 655.590,10.614 661.200 C 10.851 670.980,11.511 678.074,12.251 678.808 C 12.443 678.998,14.353 679.332,16.496 679.551 C 18.639 679.769,20.608 680.081,20.872 680.244 C 21.884 680.870,48.789 681.503,53.041 681.001 C 54.600 680.817,57.202 680.937,60.241 681.335 C 68.279 682.387,133.015 682.293,133.585 681.229 C 133.901 680.638,134.602 568.371,134.440 544.400 C 134.430 542.970,134.343 495.365,134.246 438.612 C 134.077 339.194,133.998 331.579,133.129 330.520 C 132.487 329.738,79.443 328.691,78.688 329.445 M159.200 329.497 C 138.140 329.616,139.388 329.405,139.835 332.781 C 139.967 333.781,139.885 336.850,139.652 339.600 C 139.360 343.034,139.348 348.483,139.613 357.000 C 139.828 363.893,139.986 410.439,139.969 461.800 C 139.929 581.777,140.014 681.747,140.156 681.889 C 140.218 681.951,172.833 682.092,212.634 682.203 C 252.435 682.314,291.390 682.449,299.200 682.502 C 338.611 682.773,388.000 682.154,388.000 681.390 C 388.000 681.122,386.830 678.891,385.400 676.430 C 383.970 673.970,382.800 671.862,382.800 671.746 C 382.800 671.630,382.194 670.605,381.452 669.468 C 380.711 668.331,378.362 664.430,376.231 660.800 C 374.100 657.170,372.194 653.930,371.996 653.600 C 371.798 653.270,370.792 651.470,369.761 649.600 C 366.808 644.243,361.375 634.957,358.763 630.800 C 357.450 628.710,356.198 626.640,355.983 626.200 C 355.767 625.760,355.264 624.860,354.865 624.200 C 354.466 623.540,353.191 621.214,352.031 619.031 C 350.871 616.847,349.519 614.417,349.026 613.631 C 348.116 612.178,344.745 605.990,343.671 603.800 C 343.348 603.140,342.863 602.330,342.593 602.000 C 342.324 601.670,341.655 600.590,341.108 599.600 C 340.560 598.610,339.771 597.233,339.356 596.540 C 338.330 594.830,330.612 581.486,326.667 574.600 C 324.902 571.520,322.826 568.100,322.053 567.000 C 319.371 563.184,318.718 562.196,318.355 561.400 C 318.154 560.960,316.830 558.800,315.413 556.600 C 310.569 549.081,305.600 540.420,305.600 539.497 C 305.600 539.168,303.464 535.453,301.303 532.024 C 300.809 531.241,300.280 530.330,300.127 530.000 C 299.974 529.670,299.290 528.500,298.607 527.400 C 297.925 526.300,297.150 524.950,296.886 524.400 C 296.622 523.850,296.234 523.130,296.024 522.800 C 295.382 521.792,291.767 515.439,291.471 514.800 C 291.319 514.470,290.125 512.490,288.819 510.400 C 286.314 506.393,283.660 501.933,281.799 498.600 C 279.861 495.130,274.582 485.514,273.015 482.600 C 272.187 481.060,271.036 478.990,270.457 478.000 C 269.212 475.873,268.503 474.569,266.977 471.600 C 266.355 470.390,264.980 467.901,263.923 466.068 C 262.865 464.236,262.000 462.604,262.000 462.441 C 262.000 462.278,261.265 461.167,260.367 459.972 C 259.468 458.778,257.605 455.910,256.227 453.600 C 253.639 449.261,251.678 446.107,249.348 442.532 C 248.607 441.395,248.000 440.366,248.000 440.246 C 248.000 440.126,247.010 438.314,245.800 436.218 C 244.590 434.122,243.600 432.302,243.600 432.173 C 243.600 432.044,242.340 429.781,240.800 427.144 C 239.260 424.508,238.000 422.274,238.000 422.180 C 238.000 422.087,236.788 419.983,235.306 417.505 C 233.824 415.027,232.429 412.690,232.206 412.311 C 231.983 411.931,231.035 410.531,230.100 409.198 C 229.165 407.865,228.400 406.694,228.400 406.595 C 228.400 406.380,226.497 403.364,222.598 397.400 C 221.016 394.980,219.043 391.740,218.214 390.200 C 217.385 388.660,216.126 386.500,215.417 385.400 C 212.345 380.635,210.143 376.962,208.224 373.400 C 207.427 371.922,203.065 364.522,201.541 362.063 C 200.136 359.796,190.120 342.717,187.078 337.400 C 182.888 330.078,181.819 329.025,178.851 329.296 C 178.273 329.349,169.430 329.439,159.200 329.497 " stroke="none" fill="#0e1f5f" fill-rule="evenodd"/><path id="path1" d="M2.399 5.202 C 0.933 7.260,0.738 8.669,1.393 12.475 C 1.722 14.387,1.882 16.749,1.748 17.725 C 1.615 18.700,1.716 29.917,1.974 42.649 C 2.232 55.382,2.515 73.900,2.604 83.800 C 2.693 93.700,2.952 114.130,3.179 129.200 C 3.407 144.270,3.699 166.680,3.829 179.000 C 4.033 198.331,4.232 209.928,4.468 216.200 C 4.501 217.080,4.375 228.330,4.188 241.200 C 4.001 254.070,3.896 268.110,3.953 272.400 C 4.534 315.842,4.641 332.817,4.353 336.200 C 4.150 338.588,4.180 343.504,4.428 348.400 C 4.968 359.089,5.488 446.453,5.099 461.200 C 4.934 467.470,4.716 482.050,4.615 493.600 C 4.514 505.150,4.225 520.000,3.973 526.600 C 3.722 533.200,3.638 541.570,3.788 545.200 C 4.344 558.663,4.413 562.467,4.314 574.000 C 4.051 604.336,4.724 684.005,5.248 684.649 C 5.928 685.485,9.370 685.680,22.200 685.607 C 30.295 685.561,36.029 685.703,37.800 685.993 C 39.744 686.312,54.480 686.504,86.000 686.622 C 110.970 686.715,147.690 686.898,167.600 687.028 C 187.510 687.158,210.010 687.295,217.600 687.332 C 234.738 687.416,289.600 686.932,304.400 686.566 C 311.223 686.397,318.817 686.470,324.400 686.757 C 340.436 687.584,392.897 687.491,394.206 686.633 C 395.687 685.662,395.378 684.393,392.490 679.602 C 391.231 677.512,390.127 675.621,390.038 675.401 C 389.949 675.180,389.033 673.470,388.003 671.600 C 386.972 669.730,385.356 666.760,384.410 665.000 C 383.465 663.240,382.459 661.530,382.175 661.200 C 381.891 660.870,380.675 658.710,379.472 656.400 C 378.270 654.090,376.367 650.611,375.243 648.668 C 374.119 646.726,373.200 645.055,373.200 644.956 C 373.200 644.856,372.075 642.884,370.700 640.574 C 369.325 638.263,367.885 635.839,367.500 635.186 C 367.115 634.534,366.485 633.476,366.100 632.836 C 364.899 630.839,362.684 627.037,362.232 626.196 C 361.994 625.754,361.302 624.744,360.694 623.951 C 360.086 623.158,358.664 620.729,357.535 618.554 C 355.153 613.967,354.637 613.034,353.577 611.400 C 353.149 610.740,352.524 609.660,352.188 609.000 C 351.852 608.340,350.875 606.720,350.015 605.400 C 348.156 602.544,340.800 590.101,340.800 589.812 C 340.800 589.701,339.613 587.793,338.161 585.571 C 336.710 583.349,334.704 579.971,333.703 578.065 C 332.702 576.159,331.414 573.877,330.841 572.993 C 329.206 570.470,326.721 566.296,325.608 564.200 C 325.064 563.177,322.740 559.127,321.400 556.867 C 321.180 556.496,319.920 554.616,318.600 552.690 C 317.280 550.764,316.018 548.875,315.794 548.494 C 315.571 548.112,314.442 546.180,313.285 544.200 C 312.128 542.220,311.014 540.330,310.810 540.000 C 310.605 539.670,309.637 537.870,308.658 536.000 C 307.679 534.130,306.413 531.790,305.846 530.800 C 305.278 529.810,304.651 528.640,304.453 528.200 C 304.255 527.760,302.885 525.336,301.409 522.813 C 299.933 520.291,298.268 517.321,297.708 516.213 C 297.149 515.106,295.930 513.030,294.999 511.600 C 294.069 510.170,292.789 508.051,292.154 506.891 C 291.519 505.730,290.599 504.110,290.109 503.291 C 289.620 502.471,289.055 501.437,288.855 500.992 C 288.654 500.548,287.010 497.672,285.200 494.600 C 283.390 491.528,281.751 488.652,281.556 488.208 C 281.361 487.763,281.031 487.130,280.823 486.800 C 279.145 484.145,275.316 477.085,272.146 470.800 C 271.092 468.710,269.131 465.110,267.789 462.800 C 265.692 459.192,264.409 456.926,262.241 453.000 C 261.998 452.560,261.259 451.387,260.599 450.393 C 259.062 448.078,258.731 447.541,256.909 444.402 C 256.079 442.974,255.220 441.504,255.000 441.137 C 254.780 440.769,253.984 439.418,253.230 438.134 C 251.987 436.016,249.800 432.513,247.400 428.800 C 243.818 423.257,242.748 421.522,242.529 420.905 C 242.391 420.517,242.054 419.930,241.780 419.600 C 241.312 419.037,240.116 416.879,237.680 412.200 C 237.107 411.100,236.430 409.930,236.175 409.600 C 235.921 409.270,235.164 407.986,234.495 406.746 C 233.826 405.507,231.560 401.793,229.460 398.494 C 227.360 395.195,224.778 390.942,223.721 389.042 C 222.664 387.142,218.977 380.866,215.527 375.094 C 212.077 369.322,207.772 362.080,205.960 359.000 C 204.148 355.920,201.166 351.193,199.333 348.496 C 197.500 345.799,196.000 343.499,196.000 343.384 C 196.000 343.191,191.912 336.221,190.314 333.687 C 189.937 333.089,189.128 331.610,188.517 330.400 C 187.906 329.190,185.955 325.680,184.181 322.600 C 182.406 319.520,179.458 314.030,177.630 310.400 C 174.395 303.979,173.831 302.924,172.068 300.000 C 171.603 299.230,170.971 298.047,170.662 297.372 C 170.354 296.697,169.658 295.437,169.117 294.572 C 168.576 293.707,167.442 291.650,166.598 290.000 C 165.753 288.350,164.148 285.470,163.031 283.600 C 160.219 278.893,160.230 278.912,158.759 276.000 C 158.037 274.570,156.345 271.510,155.000 269.200 C 153.654 266.890,152.427 264.730,152.272 264.400 C 152.117 264.070,151.529 262.990,150.965 262.000 C 150.402 261.010,149.111 258.580,148.097 256.600 C 147.083 254.620,145.468 251.740,144.510 250.200 C 142.736 247.351,134.846 233.602,132.688 229.600 C 132.035 228.390,130.826 226.230,130.000 224.800 C 129.174 223.370,127.394 219.950,126.045 217.200 C 123.011 211.014,120.107 205.624,118.031 202.319 C 113.986 195.882,108.465 186.197,105.920 181.073 C 105.026 179.273,103.178 175.910,101.814 173.600 C 99.243 169.246,96.111 163.521,94.595 160.400 C 94.114 159.410,92.936 156.980,91.978 155.000 C 90.565 152.082,87.848 147.266,84.606 141.933 C 84.383 141.566,83.914 140.756,83.565 140.133 C 83.216 139.510,82.520 138.280,82.018 137.400 C 78.386 131.033,76.407 127.500,75.411 125.600 C 74.776 124.390,73.974 122.921,73.628 122.335 C 72.953 121.189,67.811 112.592,67.207 111.600 C 67.007 111.270,65.096 107.940,62.962 104.200 C 60.828 100.460,57.980 95.600,56.634 93.400 C 54.218 89.450,53.806 88.735,51.916 85.200 C 51.387 84.210,50.461 82.626,49.860 81.681 C 49.258 80.735,48.590 79.565,48.375 79.081 C 48.161 78.596,47.438 77.318,46.769 76.240 C 45.510 74.211,43.773 71.046,40.712 65.200 C 39.732 63.330,37.551 59.430,35.865 56.533 C 34.179 53.635,32.800 51.172,32.800 51.057 C 32.800 50.874,27.760 41.956,26.777 40.400 C 26.569 40.070,26.216 39.377,25.994 38.860 C 25.771 38.342,24.986 36.992,24.248 35.860 C 22.005 32.415,19.388 28.299,18.233 26.400 C 17.631 25.410,16.355 23.340,15.397 21.800 C 14.440 20.260,13.194 18.149,12.629 17.110 C 12.065 16.070,10.888 14.090,10.014 12.710 C 9.140 11.329,7.944 9.210,7.357 8.000 C 5.355 3.878,3.919 3.067,2.399 5.202 M8.233 18.700 C 8.632 19.305,9.488 20.790,10.135 22.000 C 10.782 23.210,12.051 25.289,12.956 26.621 C 14.877 29.449,15.145 29.876,16.838 32.800 C 17.538 34.010,18.901 36.213,19.866 37.695 C 20.832 39.177,21.737 40.707,21.878 41.095 C 22.020 41.483,23.612 44.140,25.417 47.000 C 29.252 53.078,33.200 59.788,33.200 60.229 C 33.200 60.398,33.446 60.821,33.746 61.169 C 34.046 61.516,35.071 63.240,36.025 65.000 C 36.979 66.760,38.166 68.920,38.664 69.800 C 39.161 70.680,39.940 72.210,40.394 73.200 C 41.531 75.680,43.170 78.483,49.927 89.508 C 54.736 97.352,61.031 107.878,61.943 109.600 C 62.468 110.590,63.146 111.684,63.449 112.031 C 63.752 112.379,64.000 112.776,64.000 112.914 C 64.000 113.052,64.542 114.085,65.205 115.209 C 65.868 116.333,67.591 119.515,69.034 122.279 C 70.477 125.044,72.064 127.957,72.561 128.753 C 73.442 130.164,73.956 131.089,78.924 140.200 C 80.243 142.620,81.718 145.230,82.203 146.000 C 82.687 146.770,84.565 150.370,86.376 154.000 C 88.187 157.630,89.811 160.780,89.984 161.000 C 90.323 161.430,92.248 164.996,95.598 171.400 C 96.749 173.600,98.367 176.570,99.194 178.000 C 100.021 179.430,101.376 181.860,102.205 183.400 C 103.035 184.940,103.958 186.484,104.257 186.831 C 104.555 187.179,104.800 187.580,104.800 187.724 C 104.800 187.867,105.406 188.933,106.146 190.092 C 106.887 191.252,108.801 194.783,110.399 197.940 C 112.920 202.917,114.161 205.095,117.680 210.715 C 118.054 211.312,118.927 212.880,119.620 214.200 C 120.313 215.520,121.016 216.780,121.183 217.000 C 121.587 217.535,123.577 221.199,126.507 226.800 C 129.064 231.689,131.415 235.812,132.209 236.800 C 132.474 237.130,133.460 238.840,134.400 240.600 C 135.340 242.360,136.315 244.070,136.567 244.400 C 136.819 244.730,137.454 245.810,137.978 246.800 C 138.502 247.790,139.815 250.130,140.896 252.000 C 141.977 253.870,143.015 255.670,143.203 256.000 C 143.390 256.330,144.708 258.580,146.132 261.000 C 150.053 267.667,152.800 272.742,152.800 273.321 C 152.800 273.606,152.953 274.011,153.141 274.220 C 153.328 274.429,154.607 276.760,155.982 279.400 C 157.357 282.040,158.710 284.470,158.989 284.800 C 159.268 285.130,159.564 285.581,159.648 285.801 C 159.732 286.022,161.150 288.409,162.800 291.105 C 167.234 298.349,167.222 298.329,173.780 310.987 C 175.486 314.280,177.505 318.109,178.268 319.496 C 180.585 323.714,180.544 323.750,173.000 324.080 C 169.480 324.234,164.170 324.263,161.200 324.144 C 158.230 324.025,148.420 324.123,139.400 324.360 C 130.380 324.598,97.889 324.815,67.199 324.843 C 7.067 324.897,8.468 324.943,8.362 322.920 C 8.341 322.524,8.254 319.860,8.169 317.000 C 8.084 314.140,7.992 311.080,7.965 310.200 C 7.889 307.711,7.857 276.443,7.911 257.629 C 7.937 248.294,8.157 238.300,8.398 235.419 C 8.803 230.588,8.279 194.775,7.792 193.987 C 7.702 193.842,7.605 176.191,7.576 154.762 C 7.547 133.333,7.348 113.370,7.135 110.400 C 6.923 107.430,6.677 98.700,6.590 91.000 C 6.503 83.300,6.244 65.480,6.013 51.400 C 5.658 29.735,5.526 19.361,5.587 17.900 C 5.621 17.102,7.568 17.691,8.233 18.700 M180.860 328.410 C 182.635 328.903,184.266 330.510,185.597 333.077 C 186.146 334.135,186.795 335.270,187.041 335.600 C 187.287 335.930,188.025 337.190,188.681 338.400 C 189.337 339.610,190.592 341.770,191.470 343.200 C 192.347 344.630,194.834 348.860,196.996 352.600 C 199.158 356.340,201.711 360.608,202.668 362.085 C 203.625 363.562,204.586 365.182,204.803 365.685 C 205.020 366.188,205.424 366.949,205.699 367.377 C 207.085 369.525,208.691 372.274,208.906 372.865 C 209.039 373.231,210.060 375.001,211.174 376.797 C 212.288 378.594,213.200 380.146,213.200 380.248 C 213.200 380.349,213.540 380.920,213.955 381.516 C 215.550 383.806,217.568 387.111,219.013 389.800 C 219.840 391.340,221.390 393.920,222.458 395.534 C 223.526 397.147,224.400 398.610,224.400 398.785 C 224.400 398.959,224.690 399.343,225.045 399.637 C 225.588 400.088,226.567 401.624,229.807 407.111 C 230.267 407.890,233.745 413.235,234.864 414.884 C 235.269 415.480,235.600 416.061,235.600 416.176 C 235.600 416.291,236.230 417.369,237.000 418.573 C 237.770 419.777,238.400 420.872,238.400 421.007 C 238.400 421.142,239.633 423.355,241.141 425.926 C 242.648 428.497,244.573 431.950,245.419 433.600 C 246.264 435.250,247.776 438.000,248.778 439.711 C 249.780 441.421,250.780 443.131,251.000 443.511 C 251.220 443.890,251.940 445.013,252.600 446.007 C 253.960 448.054,254.059 448.214,256.673 452.600 C 257.722 454.360,259.361 456.921,260.316 458.292 C 261.969 460.667,263.709 463.590,265.023 466.200 C 265.355 466.860,266.035 468.120,266.535 469.000 C 267.034 469.880,268.270 472.137,269.282 474.015 C 270.293 475.893,271.678 478.376,272.360 479.533 C 273.042 480.689,273.600 481.703,273.600 481.786 C 273.600 481.869,274.500 483.495,275.600 485.400 C 276.700 487.305,277.600 488.952,277.600 489.060 C 277.600 489.518,282.952 498.895,288.409 508.000 C 291.640 513.390,294.823 518.790,295.483 520.000 C 298.858 526.186,300.958 529.815,303.004 533.000 C 303.710 534.100,305.230 536.890,306.381 539.200 C 307.532 541.510,309.672 545.436,311.137 547.924 C 314.493 553.625,314.388 553.453,315.800 555.600 C 317.160 557.668,317.334 557.948,319.119 560.947 C 319.844 562.166,321.204 564.206,322.140 565.481 C 323.077 566.757,324.278 568.610,324.809 569.600 C 325.340 570.590,325.985 571.670,326.243 572.000 C 326.500 572.330,327.226 573.545,327.855 574.701 C 328.485 575.857,329.278 577.297,329.617 577.901 C 329.956 578.505,331.036 580.439,332.017 582.197 C 334.329 586.341,334.064 585.885,337.985 592.494 C 341.960 599.193,346.800 607.612,346.800 607.826 C 346.800 607.908,347.674 609.466,348.741 611.288 C 349.809 613.109,351.456 616.040,352.400 617.800 C 355.563 623.696,356.509 625.394,357.192 626.400 C 357.565 626.950,357.994 627.670,358.146 628.000 C 358.298 628.330,359.488 630.310,360.790 632.400 C 364.172 637.827,367.624 643.694,369.617 647.400 C 372.096 652.008,371.854 651.587,376.310 659.062 C 378.559 662.837,380.400 666.034,380.400 666.167 C 380.400 666.299,380.985 667.261,381.700 668.304 C 382.415 669.347,383.431 671.010,383.958 672.000 C 384.485 672.990,385.769 675.240,386.811 677.000 C 389.059 680.797,389.396 681.740,388.709 682.307 C 387.990 682.900,364.587 683.634,348.600 683.565 C 341.340 683.534,323.610 683.505,309.200 683.500 C 258.029 683.483,227.863 683.333,202.000 682.969 C 172.919 682.559,172.465 682.561,160.600 683.094 C 151.812 683.489,140.590 683.170,139.376 682.491 C 138.720 682.123,138.679 681.373,138.833 672.547 C 139.026 661.486,139.034 652.754,138.896 596.200 C 138.821 565.558,139.076 458.347,139.258 443.800 C 139.266 443.140,139.122 424.870,138.938 403.200 C 138.440 344.456,138.519 329.595,139.334 328.999 C 139.815 328.647,144.978 328.498,158.886 328.435 C 169.279 328.388,177.862 328.271,177.958 328.175 C 178.242 327.891,179.300 327.977,180.860 328.410 M121.486 328.711 C 131.073 328.948,133.277 329.108,133.758 329.600 C 134.408 330.265,134.657 336.198,135.032 360.000 C 135.190 370.017,135.219 589.145,135.065 608.200 C 135.047 610.400,135.067 626.240,135.109 643.400 C 135.180 672.884,134.975 681.190,134.154 682.003 C 133.138 683.008,34.802 682.503,24.400 681.439 C 21.210 681.113,17.198 680.724,15.484 680.575 C 10.699 680.158,10.757 680.252,10.381 672.289 C 10.208 668.627,9.954 665.449,9.816 665.227 C 9.679 665.004,9.492 661.622,9.401 657.711 C 8.717 628.280,8.375 608.278,8.405 599.400 C 8.425 593.680,8.310 577.750,8.150 564.000 C 7.729 527.754,7.741 523.541,8.388 478.400 C 9.067 431.044,9.160 387.090,8.652 353.303 C 8.406 336.919,8.425 329.451,8.714 329.103 C 9.198 328.520,100.845 328.202,121.486 328.711 " stroke="none" fill="#ffffff" fill-rule="evenodd"/><path id="path2" d="M2.757 3.336 C 0.946 4.219,-0.095 7.009,0.195 10.200 C 0.335 11.740,0.526 20.200,0.620 29.000 C 0.714 37.800,0.968 47.790,1.184 51.200 C 1.401 54.610,1.689 75.490,1.825 97.600 C 1.961 119.710,2.258 144.820,2.486 153.400 C 3.178 179.473,3.253 188.271,2.852 196.000 C 2.615 200.578,2.609 204.767,2.837 206.986 C 3.044 208.994,3.285 248.765,3.387 297.386 C 3.500 351.762,3.716 385.321,3.966 387.200 C 4.637 392.250,4.517 467.548,3.828 473.400 C 3.372 477.270,3.245 488.700,3.170 532.400 C 3.118 562.210,3.068 587.500,3.058 588.600 C 2.878 608.545,3.822 684.886,4.254 685.244 C 5.581 686.346,8.171 686.590,19.200 686.652 C 44.004 686.790,70.651 687.230,74.132 687.560 C 79.056 688.025,185.841 688.303,284.400 688.106 C 310.250 688.055,345.556 688.055,362.858 688.106 C 393.302 688.197,394.343 688.175,395.158 687.438 C 396.680 686.060,396.294 684.162,393.550 679.533 C 391.122 675.437,390.093 673.585,386.808 667.400 C 385.873 665.640,384.522 663.300,383.806 662.200 C 383.090 661.100,381.379 658.040,380.004 655.400 C 378.629 652.760,377.341 650.396,377.141 650.146 C 376.941 649.896,376.035 648.276,375.128 646.546 C 374.221 644.816,372.460 641.690,371.215 639.600 C 369.970 637.510,367.355 633.100,365.404 629.800 C 363.453 626.500,361.550 623.440,361.175 623.000 C 360.801 622.560,359.588 620.464,358.480 618.343 C 356.571 614.688,351.729 606.421,346.735 598.289 C 344.500 594.650,342.842 591.747,341.658 589.400 C 341.325 588.740,340.491 587.390,339.806 586.400 C 338.108 583.949,334.800 578.442,334.800 578.067 C 334.800 577.900,333.966 576.421,332.948 574.782 C 330.614 571.025,327.943 566.504,327.287 565.200 C 327.010 564.650,326.347 563.480,325.813 562.600 C 325.278 561.720,324.666 560.621,324.452 560.158 C 323.722 558.574,321.446 555.002,320.123 553.359 C 319.395 552.456,318.800 551.533,318.800 551.308 C 318.800 551.082,318.542 550.684,318.227 550.423 C 317.445 549.774,312.506 541.352,309.064 534.800 C 308.081 532.930,306.813 530.590,306.246 529.600 C 305.678 528.610,305.038 527.404,304.824 526.919 C 304.610 526.435,303.936 525.265,303.328 524.319 C 301.947 522.175,301.476 521.347,299.507 517.600 C 298.640 515.950,297.345 513.700,296.629 512.600 C 295.913 511.500,294.009 508.260,292.397 505.400 C 290.786 502.540,288.170 497.950,286.586 495.200 C 283.667 490.135,282.451 487.974,280.284 484.000 C 279.625 482.790,278.953 481.620,278.793 481.400 C 278.359 480.806,275.469 475.367,272.373 469.318 C 270.869 466.382,269.271 463.461,268.820 462.828 C 268.369 462.195,268.000 461.575,268.000 461.451 C 268.000 461.092,264.824 455.607,260.096 447.800 C 256.480 441.831,251.987 434.338,251.400 433.301 C 251.030 432.647,249.030 429.563,245.738 424.571 C 245.002 423.455,244.400 422.429,244.400 422.291 C 244.400 422.153,243.880 421.266,243.245 420.320 C 242.609 419.374,241.515 417.520,240.813 416.200 C 240.111 414.880,239.382 413.530,239.193 413.200 C 239.004 412.870,237.826 410.800,236.575 408.600 C 234.367 404.719,229.753 397.193,226.704 392.501 C 225.882 391.236,224.583 388.940,223.819 387.400 C 223.054 385.860,221.477 383.031,220.314 381.114 C 219.151 379.197,216.686 375.057,214.835 371.914 C 212.984 368.771,211.079 365.660,210.601 365.000 C 210.123 364.340,208.256 361.280,206.452 358.200 C 202.199 350.935,200.573 348.361,198.279 345.256 C 197.246 343.857,196.400 342.550,196.400 342.351 C 196.400 342.153,194.915 339.484,193.100 336.420 C 191.285 333.356,188.943 329.263,187.895 327.324 C 186.847 325.386,185.767 323.447,185.495 323.015 C 183.958 320.577,182.781 318.402,178.939 310.897 C 176.602 306.334,174.551 302.420,174.380 302.200 C 174.005 301.717,170.385 295.112,167.035 288.800 C 164.917 284.809,163.485 282.308,160.848 278.000 C 160.512 277.450,159.544 275.668,158.699 274.041 C 157.853 272.413,156.251 269.541,155.140 267.659 C 154.028 265.777,152.952 263.869,152.750 263.419 C 152.547 262.968,151.956 261.880,151.436 261.000 C 150.917 260.120,149.851 258.096,149.067 256.503 C 148.284 254.910,146.582 251.850,145.285 249.703 C 143.988 247.556,141.523 243.280,139.806 240.200 C 138.090 237.120,136.296 234.060,135.819 233.400 C 135.342 232.740,134.396 231.120,133.716 229.800 C 133.037 228.480,131.832 226.230,131.039 224.800 C 130.246 223.370,128.407 219.860,126.953 217.000 C 121.941 207.142,120.833 205.088,118.674 201.650 C 114.937 195.698,110.771 188.428,107.879 182.813 C 106.345 179.836,103.495 174.671,101.545 171.336 C 99.595 168.000,98.000 165.173,98.000 165.053 C 98.000 164.933,97.487 163.965,96.860 162.901 C 96.232 161.837,94.944 159.175,93.996 156.984 C 93.048 154.793,92.031 152.716,91.736 152.369 C 91.441 152.021,91.200 151.598,91.200 151.429 C 91.200 151.056,86.899 143.646,86.191 142.800 C 85.915 142.470,85.174 141.251,84.545 140.091 C 83.915 138.930,83.007 137.310,82.526 136.491 C 82.045 135.671,81.400 134.550,81.091 134.000 C 80.783 133.450,80.167 132.364,79.721 131.588 C 79.276 130.811,78.143 128.741,77.204 126.988 C 75.758 124.290,74.201 121.601,68.353 111.696 C 67.997 111.093,65.513 106.820,62.832 102.200 C 57.338 92.732,57.381 92.805,55.965 90.607 C 55.395 89.723,54.115 87.470,53.120 85.600 C 52.124 83.730,50.355 80.580,49.188 78.600 C 47.127 75.104,44.612 70.561,41.327 64.400 C 39.293 60.585,37.662 57.675,36.843 56.398 C 35.751 54.697,35.290 53.879,34.139 51.600 C 33.529 50.390,32.437 48.452,31.714 47.292 C 30.991 46.133,30.400 45.114,30.400 45.029 C 30.400 44.722,24.247 34.146,22.541 31.521 C 21.583 30.048,20.800 28.750,20.800 28.637 C 20.800 28.524,19.810 26.977,18.600 25.200 C 17.390 23.423,16.400 21.902,16.400 21.819 C 16.400 21.737,15.770 20.713,15.000 19.544 C 14.230 18.375,13.600 17.270,13.600 17.090 C 13.600 16.909,12.970 15.777,12.200 14.573 C 11.430 13.369,10.800 12.306,10.800 12.210 C 10.800 12.114,10.332 11.353,9.759 10.518 C 9.187 9.683,8.311 8.100,7.813 7.000 C 6.397 3.870,4.492 2.490,2.757 3.336 M5.474 4.900 C 5.922 5.395,6.769 6.790,7.357 8.000 C 7.944 9.210,9.140 11.329,10.014 12.710 C 10.888 14.090,12.065 16.070,12.629 17.110 C 13.194 18.149,14.440 20.260,15.397 21.800 C 16.355 23.340,17.631 25.410,18.233 26.400 C 19.388 28.299,22.005 32.415,24.248 35.860 C 24.986 36.992,25.771 38.342,25.994 38.860 C 26.216 39.377,26.569 40.070,26.777 40.400 C 27.760 41.956,32.800 50.874,32.800 51.057 C 32.800 51.172,34.179 53.635,35.865 56.533 C 37.551 59.430,39.732 63.330,40.712 65.200 C 43.773 71.046,45.510 74.211,46.769 76.240 C 47.438 77.318,48.161 78.596,48.375 79.081 C 48.590 79.565,49.258 80.735,49.860 81.681 C 50.461 82.626,51.387 84.210,51.916 85.200 C 53.806 88.735,54.218 89.450,56.634 93.400 C 57.980 95.600,60.828 100.460,62.962 104.200 C 65.096 107.940,67.007 111.270,67.207 111.600 C 67.811 112.592,72.953 121.189,73.628 122.335 C 73.974 122.921,74.776 124.390,75.411 125.600 C 76.407 127.500,78.386 131.033,82.018 137.400 C 82.520 138.280,83.216 139.510,83.565 140.133 C 83.914 140.756,84.383 141.566,84.606 141.933 C 87.848 147.266,90.565 152.082,91.978 155.000 C 92.936 156.980,94.114 159.410,94.595 160.400 C 96.111 163.521,99.243 169.246,101.814 173.600 C 103.178 175.910,105.026 179.273,105.920 181.073 C 108.465 186.197,113.986 195.882,118.031 202.319 C 120.107 205.624,123.011 211.014,126.045 217.200 C 127.394 219.950,129.174 223.370,130.000 224.800 C 130.826 226.230,132.035 228.390,132.688 229.600 C 134.846 233.602,142.736 247.351,144.510 250.200 C 145.468 251.740,147.083 254.620,148.097 256.600 C 149.111 258.580,150.402 261.010,150.965 262.000 C 151.529 262.990,152.117 264.070,152.272 264.400 C 152.427 264.730,153.654 266.890,155.000 269.200 C 156.345 271.510,158.037 274.570,158.759 276.000 C 160.230 278.912,160.219 278.893,163.031 283.600 C 164.148 285.470,165.753 288.350,166.598 290.000 C 167.442 291.650,168.576 293.707,169.117 294.572 C 169.658 295.437,170.354 296.697,170.662 297.372 C 170.971 298.047,171.603 299.230,172.068 300.000 C 173.831 302.924,174.395 303.979,177.630 310.400 C 179.458 314.030,182.406 319.520,184.181 322.600 C 185.955 325.680,187.906 329.190,188.517 330.400 C 189.128 331.610,189.937 333.089,190.314 333.687 C 191.912 336.221,196.000 343.191,196.000 343.384 C 196.000 343.499,197.500 345.799,199.333 348.496 C 201.166 351.193,204.148 355.920,205.960 359.000 C 207.772 362.080,212.077 369.322,215.527 375.094 C 218.977 380.866,222.664 387.142,223.721 389.042 C 224.778 390.942,227.360 395.195,229.460 398.494 C 231.560 401.793,233.826 405.507,234.495 406.746 C 235.164 407.986,235.921 409.270,236.175 409.600 C 236.430 409.930,237.107 411.100,237.680 412.200 C 240.116 416.879,241.312 419.037,241.780 419.600 C 242.054 419.930,242.391 420.517,242.529 420.905 C 242.748 421.522,243.818 423.257,247.400 428.800 C 249.800 432.513,251.987 436.016,253.230 438.134 C 253.984 439.418,254.780 440.769,255.000 441.137 C 255.220 441.504,256.079 442.974,256.909 444.402 C 258.731 447.541,259.062 448.078,260.599 450.393 C 261.259 451.387,261.998 452.560,262.241 453.000 C 264.409 456.926,265.692 459.192,267.789 462.800 C 269.131 465.110,271.092 468.710,272.146 470.800 C 275.316 477.085,279.145 484.145,280.823 486.800 C 281.031 487.130,281.361 487.763,281.556 488.208 C 281.751 488.652,283.390 491.528,285.200 494.600 C 287.010 497.672,288.654 500.548,288.855 500.992 C 289.055 501.437,289.620 502.471,290.109 503.291 C 290.599 504.110,291.519 505.730,292.154 506.891 C 292.789 508.051,294.069 510.170,294.999 511.600 C 295.930 513.030,297.149 515.106,297.708 516.213 C 298.268 517.321,299.933 520.291,301.409 522.813 C 302.885 525.336,304.255 527.760,304.453 528.200 C 304.651 528.640,305.278 529.810,305.846 530.800 C 306.413 531.790,307.679 534.130,308.658 536.000 C 309.637 537.870,310.605 539.670,310.810 540.000 C 311.014 540.330,312.128 542.220,313.285 544.200 C 314.442 546.180,315.571 548.112,315.794 548.494 C 316.018 548.875,317.280 550.764,318.600 552.690 C 319.920 554.616,321.180 556.496,321.400 556.867 C 322.740 559.127,325.064 563.177,325.608 564.200 C 326.721 566.296,329.206 570.470,330.841 572.993 C 331.414 573.877,332.702 576.159,333.703 578.065 C 334.704 579.971,336.710 583.349,338.161 585.571 C 339.613 587.793,340.800 589.701,340.800 589.812 C 340.800 590.101,348.156 602.544,350.015 605.400 C 350.875 606.720,351.852 608.340,352.188 609.000 C 352.524 609.660,353.149 610.740,353.577 611.400 C 354.637 613.034,355.153 613.967,357.535 618.554 C 358.664 620.729,360.086 623.158,360.694 623.951 C 361.302 624.744,361.994 625.754,362.232 626.196 C 362.684 627.037,364.899 630.839,366.100 632.836 C 366.485 633.476,367.115 634.534,367.500 635.186 C 367.885 635.839,369.325 638.263,370.700 640.574 C 372.075 642.884,373.200 644.856,373.200 644.956 C 373.200 645.055,374.119 646.726,375.243 648.668 C 376.367 650.611,378.270 654.090,379.472 656.400 C 380.675 658.710,381.891 660.870,382.175 661.200 C 382.459 661.530,383.465 663.240,384.410 665.000 C 385.356 666.760,386.972 669.730,388.003 671.600 C 389.033 673.470,389.949 675.180,390.038 675.401 C 390.127 675.621,391.231 677.512,392.490 679.602 C 395.378 684.393,395.687 685.662,394.206 686.633 C 392.897 687.491,340.436 687.584,324.400 686.757 C 318.817 686.470,311.223 686.397,304.400 686.566 C 289.600 686.932,234.738 687.416,217.600 687.332 C 210.010 687.295,187.510 687.158,167.600 687.028 C 147.690 686.898,110.970 686.715,86.000 686.622 C 54.480 686.504,39.744 686.312,37.800 685.993 C 36.029 685.703,30.295 685.561,22.200 685.607 C 9.370 685.680,5.928 685.485,5.248 684.649 C 4.724 684.005,4.051 604.336,4.314 574.000 C 4.413 562.467,4.344 558.663,3.788 545.200 C 3.638 541.570,3.722 533.200,3.973 526.600 C 4.225 520.000,4.514 505.150,4.615 493.600 C 4.716 482.050,4.934 467.470,5.099 461.200 C 5.488 446.453,4.968 359.089,4.428 348.400 C 4.180 343.504,4.150 338.588,4.353 336.200 C 4.641 332.817,4.534 315.842,3.953 272.400 C 3.896 268.110,4.001 254.070,4.188 241.200 C 4.375 228.330,4.501 217.080,4.468 216.200 C 4.232 209.928,4.033 198.331,3.829 179.000 C 3.699 166.680,3.407 144.270,3.179 129.200 C 2.952 114.130,2.693 93.700,2.604 83.800 C 2.515 73.900,2.232 55.382,1.974 42.649 C 1.716 29.917,1.615 18.700,1.748 17.725 C 1.882 16.749,1.722 14.387,1.393 12.475 C 0.378 6.574,2.845 1.993,5.474 4.900 M5.587 17.900 C 5.526 19.361,5.658 29.735,6.013 51.400 C 6.244 65.480,6.503 83.300,6.590 91.000 C 6.677 98.700,6.923 107.430,7.135 110.400 C 7.348 113.370,7.547 133.333,7.576 154.762 C 7.605 176.191,7.702 193.842,7.792 193.987 C 8.279 194.775,8.803 230.588,8.398 235.419 C 8.157 238.300,7.937 248.294,7.911 257.629 C 7.857 276.443,7.889 307.711,7.965 310.200 C 7.992 311.080,8.084 314.140,8.169 317.000 C 8.254 319.860,8.341 322.524,8.362 322.920 C 8.468 324.943,7.067 324.897,67.199 324.843 C 97.889 324.815,130.380 324.598,139.400 324.360 C 148.420 324.123,158.230 324.025,161.200 324.144 C 164.170 324.263,169.480 324.234,173.000 324.080 C 180.544 323.750,180.585 323.714,178.268 319.496 C 177.505 318.109,175.486 314.280,173.780 310.987 C 167.222 298.329,167.234 298.349,162.800 291.105 C 161.150 288.409,159.732 286.022,159.648 285.801 C 159.564 285.581,159.268 285.130,158.989 284.800 C 158.710 284.470,157.357 282.040,155.982 279.400 C 154.607 276.760,153.328 274.429,153.141 274.220 C 152.953 274.011,152.800 273.606,152.800 273.321 C 152.800 272.742,150.053 267.667,146.132 261.000 C 144.708 258.580,143.390 256.330,143.203 256.000 C 143.015 255.670,141.977 253.870,140.896 252.000 C 139.815 250.130,138.502 247.790,137.978 246.800 C 137.454 245.810,136.819 244.730,136.567 244.400 C 136.315 244.070,135.340 242.360,134.400 240.600 C 133.460 238.840,132.474 237.130,132.209 236.800 C 131.415 235.812,129.064 231.689,126.507 226.800 C 123.577 221.199,121.587 217.535,121.183 217.000 C 121.016 216.780,120.313 215.520,119.620 214.200 C 118.927 212.880,118.054 211.312,117.680 210.715 C 114.161 205.095,112.920 202.917,110.399 197.940 C 108.801 194.783,106.887 191.252,106.146 190.092 C 105.406 188.933,104.800 187.867,104.800 187.724 C 104.800 187.580,104.555 187.179,104.257 186.831 C 103.958 186.484,103.035 184.940,102.205 183.400 C 101.376 181.860,100.021 179.430,99.194 178.000 C 98.367 176.570,96.749 173.600,95.598 171.400 C 92.248 164.996,90.323 161.430,89.984 161.000 C 89.811 160.780,88.187 157.630,86.376 154.000 C 84.565 150.370,82.687 146.770,82.203 146.000 C 81.718 145.230,80.243 142.620,78.924 140.200 C 73.956 131.089,73.442 130.164,72.561 128.753 C 72.064 127.957,70.477 125.044,69.034 122.279 C 67.591 119.515,65.868 116.333,65.205 115.209 C 64.542 114.085,64.000 113.052,64.000 112.914 C 64.000 112.776,63.752 112.379,63.449 112.031 C 63.146 111.684,62.468 110.590,61.943 109.600 C 61.031 107.878,54.736 97.352,49.927 89.508 C 43.170 78.483,41.531 75.680,40.394 73.200 C 39.940 72.210,39.161 70.680,38.664 69.800 C 38.166 68.920,36.979 66.760,36.025 65.000 C 35.071 63.240,34.046 61.516,33.746 61.169 C 33.446 60.821,33.200 60.398,33.200 60.229 C 33.200 59.788,29.252 53.078,25.417 47.000 C 23.612 44.140,22.020 41.483,21.878 41.095 C 21.737 40.707,20.832 39.177,19.866 37.695 C 18.901 36.213,17.538 34.010,16.838 32.800 C 15.145 29.876,14.877 29.449,12.956 26.621 C 12.051 25.289,10.782 23.210,10.135 22.000 C 8.169 18.323,7.580 17.600,6.554 17.600 C 6.029 17.600,5.594 17.735,5.587 17.900 M8.800 21.376 C 8.800 21.634,9.925 23.586,11.300 25.715 C 12.675 27.844,14.250 30.340,14.800 31.260 C 15.350 32.181,16.620 34.209,17.623 35.767 C 18.625 37.325,20.216 40.024,21.159 41.765 C 22.101 43.505,23.196 45.395,23.591 45.965 C 24.282 46.959,25.417 48.732,28.548 53.708 C 29.347 54.977,30.000 56.097,30.000 56.195 C 30.000 56.294,30.874 57.866,31.943 59.688 C 33.656 62.610,35.856 66.592,38.036 70.718 C 38.419 71.443,38.906 72.253,39.117 72.518 C 39.329 72.783,39.632 73.423,39.791 73.939 C 40.032 74.727,41.276 76.892,46.993 86.482 C 47.217 86.857,48.049 88.207,48.842 89.482 C 50.107 91.515,54.956 99.465,56.760 102.464 C 58.534 105.413,60.262 108.421,61.317 110.400 C 61.963 111.610,62.695 112.870,62.945 113.200 C 63.195 113.530,63.597 114.160,63.839 114.600 C 66.223 118.946,67.577 121.459,68.907 124.000 C 69.770 125.650,71.419 128.620,72.571 130.600 C 73.724 132.580,75.538 135.820,76.603 137.800 C 78.549 141.420,79.157 142.518,81.255 146.200 C 81.882 147.300,83.673 150.720,85.236 153.800 C 86.799 156.880,88.487 160.120,88.988 161.000 C 90.558 163.760,91.783 166.036,94.581 171.400 C 98.103 178.151,99.299 180.287,104.326 188.800 C 106.079 191.770,108.463 196.090,109.622 198.400 C 110.781 200.710,113.320 205.244,115.265 208.475 C 117.209 211.707,118.800 214.435,118.800 214.538 C 118.800 214.693,119.878 216.622,123.194 222.400 C 123.383 222.730,124.564 224.980,125.818 227.400 C 128.430 232.439,130.532 236.116,132.576 239.219 C 133.359 240.409,134.000 241.584,134.000 241.831 C 134.000 242.078,134.503 242.982,135.118 243.840 C 135.732 244.698,136.833 246.570,137.564 248.000 C 138.295 249.430,139.322 251.173,139.846 251.873 C 140.371 252.574,140.800 253.258,140.800 253.395 C 140.800 253.531,141.817 255.388,143.059 257.521 C 149.447 268.488,150.888 271.122,153.060 275.792 C 153.467 276.667,154.745 279.051,155.900 281.088 C 157.055 283.126,158.000 284.899,158.000 285.029 C 158.000 285.158,158.602 286.195,159.338 287.332 C 160.074 288.469,161.097 290.120,161.612 291.000 C 162.126 291.880,163.295 293.770,164.210 295.200 C 165.126 296.630,167.189 300.320,168.796 303.400 C 173.050 311.555,175.500 316.214,177.287 319.546 C 179.458 323.594,180.028 323.387,166.479 323.474 C 102.430 323.885,10.462 323.749,9.852 323.243 C 9.280 322.769,9.184 321.871,9.205 317.243 C 9.226 312.792,9.074 295.079,8.799 270.000 C 8.728 263.529,9.084 241.779,9.389 234.000 C 9.556 229.738,9.413 213.624,9.052 196.000 C 8.301 159.290,8.228 149.257,8.608 134.800 C 8.805 127.301,8.748 122.336,8.430 119.200 C 8.174 116.670,7.898 105.960,7.817 95.400 C 7.735 84.840,7.477 73.770,7.241 70.800 C 7.006 67.830,6.760 54.815,6.693 41.879 L 6.573 18.357 7.686 19.633 C 8.299 20.334,8.800 21.119,8.800 21.376 M177.958 328.175 C 177.862 328.271,169.279 328.388,158.886 328.435 C 144.978 328.498,139.815 328.647,139.334 328.999 C 138.519 329.595,138.440 344.456,138.938 403.200 C 139.122 424.870,139.266 443.140,139.258 443.800 C 139.076 458.347,138.821 565.558,138.896 596.200 C 139.034 652.754,139.026 661.486,138.833 672.547 C 138.679 681.373,138.720 682.123,139.376 682.491 C 140.590 683.170,151.812 683.489,160.600 683.094 C 172.465 682.561,172.919 682.559,202.000 682.969 C 227.863 683.333,258.029 683.483,309.200 683.500 C 323.610 683.505,341.340 683.534,348.600 683.565 C 364.587 683.634,387.990 682.900,388.709 682.307 C 389.396 681.740,389.059 680.797,386.811 677.000 C 385.769 675.240,384.485 672.990,383.958 672.000 C 383.431 671.010,382.415 669.347,381.700 668.304 C 380.985 667.261,380.400 666.299,380.400 666.167 C 380.400 666.034,378.559 662.837,376.310 659.062 C 371.854 651.587,372.096 652.008,369.617 647.400 C 367.624 643.694,364.172 637.827,360.790 632.400 C 359.488 630.310,358.298 628.330,358.146 628.000 C 357.994 627.670,357.565 626.950,357.192 626.400 C 356.509 625.394,355.563 623.696,352.400 617.800 C 351.456 616.040,349.809 613.109,348.741 611.288 C 347.674 609.466,346.800 607.908,346.800 607.826 C 346.800 607.612,341.960 599.193,337.985 592.494 C 334.064 585.885,334.329 586.341,332.017 582.197 C 331.036 580.439,329.956 578.505,329.617 577.901 C 329.278 577.297,328.485 575.857,327.855 574.701 C 327.226 573.545,326.500 572.330,326.243 572.000 C 325.985 571.670,325.340 570.590,324.809 569.600 C 324.278 568.610,323.077 566.757,322.140 565.481 C 321.204 564.206,319.844 562.166,319.119 560.947 C 317.334 557.948,317.160 557.668,315.800 555.600 C 314.388 553.453,314.493 553.625,311.137 547.924 C 309.672 545.436,307.532 541.510,306.381 539.200 C 305.230 536.890,303.710 534.100,303.004 533.000 C 300.958 529.815,298.858 526.186,295.483 520.000 C 294.823 518.790,291.640 513.390,288.409 508.000 C 282.952 498.895,277.600 489.518,277.600 489.060 C 277.600 488.952,276.700 487.305,275.600 485.400 C 274.500 483.495,273.600 481.869,273.600 481.786 C 273.600 481.703,273.042 480.689,272.360 479.533 C 271.678 478.376,270.293 475.893,269.282 474.015 C 268.270 472.137,267.034 469.880,266.535 469.000 C 266.035 468.120,265.355 466.860,265.023 466.200 C 263.709 463.590,261.969 460.667,260.316 458.292 C 259.361 456.921,257.722 454.360,256.673 452.600 C 254.059 448.214,253.960 448.054,252.600 446.007 C 251.940 445.013,251.220 443.890,251.000 443.511 C 250.780 443.131,249.780 441.421,248.778 439.711 C 247.776 438.000,246.264 435.250,245.419 433.600 C 244.573 431.950,242.648 428.497,241.141 425.926 C 239.633 423.355,238.400 421.142,238.400 421.007 C 238.400 420.872,237.770 419.777,237.000 418.573 C 236.230 417.369,235.600 416.291,235.600 416.176 C 235.600 416.061,235.269 415.480,234.864 414.884 C 233.745 413.235,230.267 407.890,229.807 407.111 C 226.567 401.624,225.588 400.088,225.045 399.637 C 224.690 399.343,224.400 398.959,224.400 398.785 C 224.400 398.610,223.526 397.147,222.458 395.534 C 221.390 393.920,219.840 391.340,219.013 389.800 C 217.568 387.111,215.550 383.806,213.955 381.516 C 213.540 380.920,213.200 380.349,213.200 380.248 C 213.200 380.146,212.288 378.594,211.174 376.797 C 210.060 375.001,209.039 373.231,208.906 372.865 C 208.691 372.274,207.085 369.525,205.699 367.377 C 205.424 366.949,205.020 366.188,204.803 365.685 C 204.586 365.182,203.625 363.562,202.668 362.085 C 201.711 360.608,199.158 356.340,196.996 352.600 C 194.834 348.860,192.347 344.630,191.470 343.200 C 190.592 341.770,189.337 339.610,188.681 338.400 C 188.025 337.190,187.287 335.930,187.041 335.600 C 186.795 335.270,186.146 334.135,185.597 333.077 C 183.765 329.544,179.394 326.739,177.958 328.175 M8.714 329.103 C 8.425 329.451,8.406 336.919,8.652 353.303 C 9.160 387.090,9.067 431.044,8.388 478.400 C 7.741 523.541,7.729 527.754,8.150 564.000 C 8.310 577.750,8.425 593.680,8.405 599.400 C 8.375 608.278,8.717 628.280,9.401 657.711 C 9.492 661.622,9.679 665.004,9.816 665.227 C 9.954 665.449,10.208 668.627,10.381 672.289 C 10.757 680.252,10.699 680.158,15.484 680.575 C 17.198 680.724,21.210 681.113,24.400 681.439 C 34.802 682.503,133.138 683.008,134.154 682.003 C 134.975 681.190,135.180 672.884,135.109 643.400 C 135.067 626.240,135.047 610.400,135.065 608.200 C 135.219 589.145,135.190 370.017,135.032 360.000 C 134.657 336.198,134.408 330.265,133.758 329.600 C 132.540 328.354,9.741 327.866,8.714 329.103 M131.067 329.821 C 133.156 330.094,133.457 330.469,133.797 333.212 C 133.947 334.429,134.149 381.859,134.246 438.612 C 134.343 495.365,134.430 542.970,134.440 544.400 C 134.602 568.371,133.901 680.638,133.585 681.229 C 133.015 682.293,68.279 682.387,60.241 681.335 C 57.202 680.937,54.600 680.817,53.041 681.001 C 48.789 681.503,21.884 680.870,20.872 680.244 C 20.608 680.081,18.639 679.769,16.496 679.551 C 14.353 679.332,12.443 678.998,12.251 678.808 C 11.511 678.074,10.851 670.980,10.614 661.200 C 10.478 655.590,10.191 646.860,9.976 641.800 C 9.762 636.740,9.403 611.090,9.179 584.800 C 8.955 558.510,8.675 533.580,8.557 529.400 C 8.428 524.824,8.508 521.004,8.757 519.800 C 9.086 518.208,9.992 477.035,10.086 459.400 C 10.181 441.472,9.607 336.935,9.401 334.700 C 9.243 332.985,9.302 331.363,9.545 330.732 L 9.956 329.664 44.256 329.620 C 63.122 329.596,78.616 329.517,78.688 329.445 C 78.907 329.226,129.280 329.588,131.067 329.821 M181.259 329.767 C 183.070 330.524,183.360 330.904,187.078 337.400 C 190.120 342.717,200.136 359.796,201.541 362.063 C 203.065 364.522,207.427 371.922,208.224 373.400 C 210.143 376.962,212.345 380.635,215.417 385.400 C 216.126 386.500,217.385 388.660,218.214 390.200 C 219.043 391.740,221.016 394.980,222.598 397.400 C 226.497 403.364,228.400 406.380,228.400 406.595 C 228.400 406.694,229.165 407.865,230.100 409.198 C 231.035 410.531,231.983 411.931,232.206 412.311 C 232.429 412.690,233.824 415.027,235.306 417.505 C 236.788 419.983,238.000 422.087,238.000 422.180 C 238.000 422.274,239.260 424.508,240.800 427.144 C 242.340 429.781,243.600 432.044,243.600 432.173 C 243.600 432.302,244.590 434.122,245.800 436.218 C 247.010 438.314,248.000 440.126,248.000 440.246 C 248.000 440.366,248.607 441.395,249.348 442.532 C 251.678 446.107,253.639 449.261,256.227 453.600 C 257.605 455.910,259.468 458.778,260.367 459.972 C 261.265 461.167,262.000 462.278,262.000 462.441 C 262.000 462.604,262.865 464.236,263.923 466.068 C 264.980 467.901,266.355 470.390,266.977 471.600 C 268.503 474.569,269.212 475.873,270.457 478.000 C 271.036 478.990,272.187 481.060,273.015 482.600 C 274.582 485.514,279.861 495.130,281.799 498.600 C 283.660 501.933,286.314 506.393,288.819 510.400 C 290.125 512.490,291.319 514.470,291.471 514.800 C 291.767 515.439,295.382 521.792,296.024 522.800 C 296.234 523.130,296.622 523.850,296.886 524.400 C 297.150 524.950,297.925 526.300,298.607 527.400 C 299.290 528.500,299.974 529.670,300.127 530.000 C 300.280 530.330,300.809 531.241,301.303 532.024 C 303.464 535.453,305.600 539.168,305.600 539.497 C 305.600 540.420,310.569 549.081,315.413 556.600 C 316.830 558.800,318.154 560.960,318.355 561.400 C 318.718 562.196,319.371 563.184,322.053 567.000 C 322.826 568.100,324.902 571.520,326.667 574.600 C 330.612 581.486,338.330 594.830,339.356 596.540 C 339.771 597.233,340.560 598.610,341.108 599.600 C 341.655 600.590,342.324 601.670,342.593 602.000 C 342.863 602.330,343.348 603.140,343.671 603.800 C 344.745 605.990,348.116 612.178,349.026 613.631 C 349.519 614.417,350.871 616.847,352.031 619.031 C 353.191 621.214,354.466 623.540,354.865 624.200 C 355.264 624.860,355.767 625.760,355.983 626.200 C 356.198 626.640,357.450 628.710,358.763 630.800 C 361.375 634.957,366.808 644.243,369.761 649.600 C 370.792 651.470,371.798 653.270,371.996 653.600 C 372.194 653.930,374.100 657.170,376.231 660.800 C 378.362 664.430,380.711 668.331,381.452 669.468 C 382.194 670.605,382.800 671.630,382.800 671.746 C 382.800 671.862,383.970 673.970,385.400 676.430 C 386.830 678.891,388.000 681.122,388.000 681.390 C 388.000 682.154,338.611 682.773,299.200 682.502 C 291.390 682.449,252.435 682.314,212.634 682.203 C 172.833 682.092,140.218 681.951,140.156 681.889 C 140.014 681.747,139.929 581.777,139.969 461.800 C 139.986 410.439,139.828 363.893,139.613 357.000 C 139.348 348.483,139.360 343.034,139.652 339.600 C 139.885 336.850,139.967 333.781,139.835 332.781 C 139.388 329.405,138.140 329.616,159.200 329.497 C 169.430 329.439,178.273 329.349,178.851 329.296 C 179.429 329.243,180.513 329.455,181.259 329.767 " stroke="none" fill="#def1af" fill-rule="evenodd"/></g></svg>